<?xml version="1.0" standalone="no"?>
<!DOCTYPE svg PUBLIC "-//W3C//DTD SVG 1.1//EN" "http://www.w3.org/Graphics/SVG/1.1/DTD/svg11.dtd" >
<svg xmlns="http://www.w3.org/2000/svg" xmlns:xlink="http://www.w3.org/1999/xlink" version="1.1">
<metadata></metadata>
<defs>
<font id="adoniscbold" horiz-adv-x="1181" >
<font-face units-per-em="2048" ascent="1470" descent="-578" />
<missing-glyph horiz-adv-x="477" />
<glyph horiz-adv-x="0" />
<glyph horiz-adv-x="682" />
<glyph unicode=" "  horiz-adv-x="477" />
<glyph unicode="&#x09;" horiz-adv-x="477" />
<glyph unicode="&#xa0;" horiz-adv-x="477" />
<glyph unicode="!" horiz-adv-x="528" d="M125 1360q0 86 39.5 129t107.5 43q67 0 107.5 -44t40.5 -134q0 -32 -10 -117l-101 -817h-71l-101 817q-12 85 -12 123zM135 113q-2 59 37 101.5t98 43.5q59 0 102 -40.5t44 -98.5q0 -59 -40.5 -99.5t-99.5 -42.5q-60 -1 -99.5 37.5t-41.5 98.5z" />
<glyph unicode="&#x22;" horiz-adv-x="747" d="M76 1389q0 122 112 122q119 0 119 -122q0 -7 -16 -97l-53 -272h-97l-55 274q-10 48 -10 95zM410 1389q0 62 27 92t85 30q117 0 117 -122q0 -15 -14 -97l-54 -272h-100l-51 272q-10 54 -10 97z" />
<glyph unicode="#" horiz-adv-x="1318" d="M100 319l19 119h221l74 461h-224l29 121h219l58 340h135l-60 -340h271l55 340h135l-57 -340h221l-29 -121h-215l-73 -461h217l-21 -119h-215l-59 -339h-131l53 339h-268l-60 -339h-133l57 339h-219zM471 438h274l70 461h-268z" />
<glyph unicode="$" d="M57 225q0 84 31.5 150.5t87.5 66.5q8 0 14.5 -1t12 -4t9.5 -5.5t8 -9.5l6 -10.5t5.5 -14t5 -16t5.5 -20t6 -21.5q69 -248 248 -248v1v1v1v1v1v1v1v1v1v1v1v1v1v1v1v1v1v1v1v1v1v1v1v1v1v1v1v1v1v1v1v1v1v1v1v1v1v1v1v1v1v1v1v1v1v1v1v1v1v1v1v1v1v1v1v1v1v1v1v1v1v1v1v1 v1v1v1v1v1v1v1v1v1v1v1v1v1v1v1v1v1v1v1v1v1v1v1v1v1v1v1v1v1v1v1v1v1v1v1v1v1v1v1v1v2v1v1v1v1v1v1v1v1v1v1v2v1v1v1v1v1v1v2v1v1v1v1v1v1v2v1v1v1v1v2v1v1v1v1v2v1v1v1v1v2v1v1v1v2v1v1v1v2v1v1v1v2v1v1v1v2v1v1v2v1v1v1v2v1v1v2v1v1v2v1v1v2v1v1v2v1v1v2v1v1v2v1v1v2v1v1 v2v1v2v1v1v2v1v2v1v1v2v1v2v1v1v2v1v2v1v2v1v1v2v1v2v1v2v1v2v1v1v2v1v2v1v2v1v2v1v2v1v2v1v2v1v2v1v2v1v2v1v2v1v2v1v2v1v2v1v2v2v1v2v1v2v1v2v1v2v2v1v2v1v2v1v2v2v1v2v1v2v2v1v2v1v2v2v1v2v1v2v2v1v2v2v1v2v1v2v2v1v2v2v1v2v2v1v2v2v1v2v2v1v2v2v1v2v2v2v1v2v2v1v2v2v1v2 v2v2v1v2v2v1v2v2v2v1v2v2v2v1v2v2v2v1v2v2v2v2v1v2v2v2v1v2v2v2v2v1v2v2v2v2v1v2v2v2v2v1v2v2v2v2v2v1v2v2v2v2v2v2v1v2v2v2v2v2v2v2v1v2v2v2v2v2v2v2v2v2v1v2v2v2v9q-4 3 -152 80q-118 61 -193 154t-75 215q0 92 33 163.5t92 117.5t132.5 73t162.5 37v133h135v-131 q141 -4 258 -45q77 -27 106 -77t23 -128q-12 -168 -92 -168q-23 0 -42.5 26t-39 65t-44.5 80t-68.5 76.5t-100.5 47.5v-487q209 -108 281 -158q126 -88 163 -198q19 -57 19 -130q0 -178 -120.5 -292.5t-342.5 -137.5v-135h-135v133q-209 7 -324 83t-115 181zM344 1167 q0 -25 1 -37.5t8 -39.5t27 -52t52 -49q44 -30 64 -39v1v1v1v1v1v1v1v1v1v1v1v1v1v1v1v1v1v1v1v1v1v1v1v1v1v1v1v1v1v1v1v1v1v1v1v1v1v1v1v1v1v1v1v1v1v1v1v1v1v1v1v1v1v1v1v1v1v1v1v1v1v1v1v1v1v1v1v1v1v1v1v1v1v1v1v1v1v1v1v1v1v2v1v1v1v1v1v1v1v1v2v1v1v1v1v1v2v1v1v1v1v1 v2v1v1v1v1v2v1v1v1v2v1v1v1v2v1v1v1v2v1v1v2v1v1v1v2v1v1v2v1v1v2v1v1v2v1v1v2v1v1v2v1v2v1v1v2v1v1v2v1v2v1v2v1v1v2v1v2v1v2v1v1v2v1v2v1v2v1v2v1v2v1v2v1v2v1v2v1v2v1v2v1v2v1v2v1v2v1v2v2v1v2v1v2v1v2v1v2v2v1v2v1v2v2v1v2v1v2v2v1v2v2v1v2v1v2v2v1v2v2v1v2v2v1v2v2v1v2 v2v1v2v2v2v1v2v2v1v2v2v2v1v2v2v1v2v2v2v1v2v2v2v1v2v2v2v2v1v2v2v2v2v1v2v2v2v2v1v2v2v2v2v2v1v2v2v2v2v2v1v2v2v2v2v2v2v2v2v1v2v2v2v2v2v9q-80 -19 -116 -73.5t-36 -125.5zM631 94q96 6 152.5 69.5t56.5 151.5q0 35 -8 66t-18.5 53.5t-30.5 44t-35 34.5t-40.5 28.5 t-38.5 22t-38 18.5v-488z" />
<glyph unicode="%" horiz-adv-x="1413" d="M39 1120q0 169 87.5 267t227.5 98q86 0 151.5 -29.5t102 -80t54.5 -110.5t18 -128q0 -163 -91.5 -263t-226.5 -100q-73 0 -130 20.5t-92.5 54t-59 80t-32.5 93t-9 98.5zM240 1167q0 -303 118 -303q37 0 63 18t39 51t18 70t5 84q0 306 -125 306q-32 1 -54 -12t-34.5 -32 t-19.5 -51t-8.5 -60.5t-1.5 -70.5zM276 -18q0 23 17 53l717 1399q1 1 4 7t5 9.5t7 10t10 10.5t12 8t16.5 6t20.5 2q19 0 32 -16t13 -31q0 -23 -14 -56l-717 -1398q0 -1 -7.5 -12.5t-14 -19t-21 -15t-32.5 -7.5q-19 0 -33.5 17.5t-14.5 32.5zM735 293q0 169 87.5 266.5 t228.5 97.5q87 0 151.5 -29t101.5 -79t54.5 -110t17.5 -128q0 -165 -91.5 -265.5t-225.5 -100.5q-73 0 -130.5 21t-93 55t-59 80.5t-32.5 93.5t-9 98zM936 344q0 -307 119 -307q37 0 62 18t38 51.5t18 70.5t5 85q0 305 -123 305q-39 1 -64 -16.5t-36.5 -52.5t-15 -69 t-3.5 -85z" />
<glyph unicode="&#x26;" horiz-adv-x="1538" d="M49 354q0 275 303 455q-47 59 -67.5 86.5t-46.5 71.5t-35.5 84.5t-9.5 91.5q0 134 115 236t284 102q162 0 262 -71.5t100 -207.5q0 -102 -82.5 -203.5t-222.5 -175.5l361 -422q28 51 28 115q0 14 -1 23t-4.5 21.5t-13 19t-24.5 6.5q-51 0 -51 47q0 32 32.5 49.5 t70.5 17.5h139q46 0 76 -17t30 -50q0 -23 -11 -35t-44 -12q-12 0 -21 -8t-13 -16t-10 -25.5t-9 -24.5q-4 -10 -15.5 -39t-16.5 -40.5t-14.5 -34.5t-15.5 -35t-14.5 -27t-15.5 -25q113 -146 200 -186q7 -3 21.5 -8.5t23 -9.5t18 -10t14.5 -13t5 -16q0 -33 -33.5 -59.5 t-97.5 -26.5q-90 0 -163.5 35.5t-143.5 119.5q-85 -83 -210.5 -129.5t-254.5 -46.5q-201 0 -311.5 111t-110.5 282zM276 426q0 -65 18 -123t53 -103.5t92 -72.5t130 -27q84 0 176.5 37.5t118.5 71.5l-430 510q-73 -33 -115.5 -110.5t-42.5 -182.5zM406 1196q0 -33 14.5 -68 t28 -54.5t43.5 -59.5l77 -101q95 34 162.5 110.5t67.5 137.5q0 96 -52 152.5t-155 56.5q-81 0 -133.5 -41.5t-52.5 -132.5z" />
<glyph unicode="'" horiz-adv-x="399" d="M76 1389q0 122 112 122q119 0 119 -122q0 -7 -16 -97l-53 -272h-97l-55 274q-10 48 -10 95z" />
<glyph unicode="(" horiz-adv-x="753" d="M72 547q0 158 40.5 304t112.5 264.5t158 213t190 174.5q41 33 62 33q37 0 37 -33q0 -10 -5 -21t-10 -17t-16.5 -18.5t-15.5 -16.5q-138 -151 -227 -383.5t-89 -499.5q0 -266 89 -500t227 -385q2 -2 14 -15t17 -19t10.5 -17.5t5.5 -22.5q0 -30 -37 -30q-19 0 -62 30 q-100 76 -189 182t-159.5 230t-111.5 266.5t-41 280.5z" />
<glyph unicode=")" horiz-adv-x="753" d="M82 -412q0 6 1.5 12.5t5 12.5t5.5 10.5t8.5 11t8.5 9t9.5 10l8.5 8.5q137 150 225 384t88 501t-88 499.5t-225 383.5q-4 4 -15.5 16.5t-16.5 18.5t-10 17t-5 21q0 33 35 33q9 0 18 -3.5t14 -7t15.5 -11.5t15.5 -11q104 -80 189.5 -174.5t157.5 -213t112.5 -264.5 t40.5 -304q0 -138 -41 -280.5t-111 -266.5t-159 -230t-189 -182q-1 -1 -11 -8t-13 -9t-11 -6t-14.5 -5.5t-13.5 -1.5q-35 0 -35 30z" />
<glyph unicode="*" horiz-adv-x="909" d="M66 897q0 42 59 76q21 13 76 29t100 26l45 10v9q-174 36 -221 65q-59 34 -59 76q0 24 20 57q30 53 72 53q21 0 65 -18q19 -14 59.5 -54.5t71.5 -73.5l31 -34l10 8q-55 167 -55 222q0 57 22.5 78.5t71.5 21.5t72.5 -21.5t23.5 -78.5q0 -24 -14.5 -79.5t-28.5 -98.5 l-14 -44l12 -8q117 131 162 162q43 18 66 18q41 0 71 -53q19 -38 19 -57q0 -41 -58 -76q-21 -13 -76 -29t-100 -26l-45 -10v-9q174 -36 221 -65q58 -35 58 -76q0 -19 -19 -57q-31 -54 -71 -54q-20 0 -66 19q-20 15 -60.5 55.5t-70.5 73.5l-31 33l-12 -6q57 -169 57 -222 q0 -58 -23.5 -80t-72.5 -22t-71.5 21.5t-22.5 80.5q0 24 14 79.5t28 99.5l13 43l-10 6q-119 -129 -162 -162q-46 -19 -65 -19q-41 0 -72 54q-20 33 -20 57z" />
<glyph unicode="+" horiz-adv-x="1075" d="M84 457v139h358v360h142v-360h358v-139h-358v-359h-142v359h-358z" />
<glyph unicode="," horiz-adv-x="407" d="M18 -332q0 27 21 39q2 1 19 12t21.5 14t19.5 14t20 17t17 17.5t16.5 21.5t10.5 23t8.5 28t2.5 31q0 25 -12 45.5t-29.5 35.5t-35 31t-29.5 40.5t-11 56.5q0 55 36.5 95t107.5 40q73 0 119.5 -50t46.5 -150q0 -72 -36.5 -147.5t-87 -128t-102.5 -86.5t-84 -34 q-39 0 -39 35z" />
<glyph unicode="-" horiz-adv-x="862" d="M111 430v162h600v-162h-600z" />
<glyph unicode="." horiz-adv-x="552" d="M137 115q0 59 40.5 101t98.5 42q59 0 101.5 -42.5t42.5 -100.5t-42.5 -98t-101.5 -40t-99 40t-40 98z" />
<glyph unicode="/" horiz-adv-x="874" d="M-20 -375l745 1897l131 -58l-752 -1894z" />
<glyph unicode="0" d="M100 729q0 157 27.5 286t74.5 216t111 146t135.5 85.5t149.5 26.5q81 0 150.5 -20.5t135.5 -74t112 -137.5t74 -218.5t28 -309.5q0 -158 -33 -290.5t-85.5 -220t-119.5 -148.5t-133.5 -88t-128.5 -27q-79 0 -149.5 24.5t-135.5 82t-111.5 144.5t-74 221t-27.5 302z M373 729q0 -192 16.5 -324.5t48 -204t70 -101t90.5 -29.5q54 0 93.5 30.5t70 103t46 203.5t15.5 322q0 195 -14.5 324t-45 198t-69.5 96t-96 27q-56 0 -95 -27t-70 -96t-45.5 -198t-14.5 -324z" />
<glyph unicode="1" d="M272 1165q0 31 88 99.5t195 130.5q35 20 85.5 37.5t82.5 17.5t43.5 -28.5t11.5 -78.5v-1148q0 -76 60 -76q31 0 41 -13t10 -38q0 -34 -32 -51t-73 -17h-284q-41 0 -74 17t-33 51q0 25 10.5 38t42.5 13q34 0 47 16.5t13 59.5v884q0 40 -25 58q-16 13 -56 8.5t-91 -23.5 q-17 -7 -29 -7t-18.5 4t-10 13t-4 16t-0.5 17z" />
<glyph unicode="2" d="M141 100q0 126 195 357q51 61 111 119t110.5 116.5t114.5 157.5q25 40 39 104t14 127q0 277 -195 277q-25 0 -54.5 -10.5t-60 -31.5t-50 -60.5t-19.5 -90.5q0 -32 12.5 -67.5t12.5 -53.5q0 -34 -27 -64t-74 -30q-59 0 -94 40t-35 126q0 152 127 262.5t322 110.5 q87 0 161.5 -22t133 -66.5t92 -117t33.5 -167.5q0 -64 -19 -124t-54 -111t-67 -87t-75 -77q-60 -55 -164 -143t-165.5 -146t-94.5 -109q-35 -52 -35 -92q0 -8 8 -12t22.5 -5t28 -1t30.5 1t24 1h231q79 0 124 18.5t87 61.5q43 43 72 43q15 0 23 -9.5t9.5 -19t1.5 -26.5 q0 -5 -24 -132q-9 -43 -18 -68t-20 -42.5t-31.5 -24.5t-43.5 -9.5t-65 -2.5h-504q-150 0 -150 100z" />
<glyph unicode="3" d="M90 264q0 78 28 116t93 38q31 0 53 -10.5t31.5 -28t13.5 -32.5t4 -30q6 -127 55 -180t154 -53q240 0 240 313q0 56 -14 106t-43 92.5t-78.5 67.5t-114.5 25q-41 0 -82 -7t-59 -7q-24 0 -35.5 11.5t-11.5 45.5q0 25 6.5 42t15 25.5t25.5 12.5t27.5 4t33 -1t31.5 -1h49 q121 0 169 76t48 231q0 120 -54 181t-149 61q-50 0 -87 -12.5t-57.5 -30.5t-32.5 -42t-15.5 -43t-3.5 -38q0 -22 7 -48.5t7 -51.5q0 -88 -106 -88q-45 0 -80 34t-35 117q0 134 121.5 232t310.5 98q60 0 116 -7.5t119 -31t109 -60.5t76.5 -101.5t30.5 -149.5 q0 -88 -32.5 -158t-85 -113t-101.5 -67.5t-101 -38.5v-8q112 -9 195 -62.5t123 -130.5t40 -164q0 -86 -36 -165t-101.5 -140t-165.5 -97t-219 -36q-195 0 -313.5 84.5t-118.5 220.5z" />
<glyph unicode="4" d="M117 504q0 106 147 375q105 192 250 360q218 250 365 250q20 0 34 -6.5t20.5 -13.5t10 -25t4 -28.5t0.5 -35.5v-788h107q3 0 15.5 0.5t16.5 0t14 -2t13.5 -4.5t9 -8.5t7.5 -14t2 -20.5q0 -51 -30 -85t-63 -34h-92v-229q11 -76 37 -76q34 0 44.5 -13t10.5 -38 q0 -34 -33 -51t-73 -17h-246q-41 0 -72.5 17t-31.5 51q0 25 10 38t41 13q41 0 41 76v229h-471q-88 0 -88 80zM295 608q0 -7 3.5 -11.5t11.5 -6t14 -1.5t17 0.5t15 0.5h320v465q0 13 1 37.5t1 38.5t-1.5 30t-7 23.5t-14.5 7.5q-22 0 -60 -38t-58 -69q-111 -147 -162 -251 q-80 -160 -80 -226z" />
<glyph unicode="5" d="M143 256q0 62 32.5 108t88.5 46q60 0 83.5 -30.5t23.5 -66.5q0 -5 -0.5 -32.5t0 -38t3.5 -36t9.5 -37.5t19 -30.5t30.5 -27.5t45.5 -16t62.5 -7q118 0 181.5 92.5t63.5 253.5q0 91 -18.5 154.5t-53.5 97.5t-76 48t-95 14q-74 0 -176 -50q-57 -30 -82 -30 q-27 0 -44.5 15.5t-17.5 45.5q0 57 6 100l86 564q4 14 8.5 24t12 16t12 10t15.5 5.5t15 2t18.5 0t17.5 -0.5h538q70 0 77 -33q1 -7 1 -22v-6q0 -24 -7.5 -52.5t-23 -58t-46 -49t-70.5 -19.5h-451l-61 -376q135 51 256 51q205 0 323.5 -105t118.5 -325q0 -130 -64.5 -243 t-184 -183t-265.5 -70q-209 0 -310.5 83t-101.5 214z" />
<glyph unicode="6" d="M109 553q0 140 25.5 264.5t69 217.5t102 170.5t124 129.5t135.5 88t136 52t126 16q46 0 67 -12t21 -41q0 -31 -23.5 -47.5t-84.5 -26.5q-97 -17 -179.5 -73t-136.5 -133t-84 -167t-30 -178q61 63 124.5 94t174.5 31q82 0 152 -28t124 -82t84.5 -140t30.5 -194t-31 -199 t-80.5 -151.5t-113 -103.5t-126.5 -62t-122 -19q-91 0 -166 25t-127 69t-90 100.5t-60 125t-32 136t-10 138.5zM362 614q-3 -116 11.5 -209t39.5 -151t59 -96.5t68.5 -54t69.5 -15.5q49 0 87.5 32.5t60.5 83.5t33.5 106t11.5 106q0 24 -1 46t-5.5 62.5t-12 74t-23.5 71.5 t-37.5 64t-55.5 43.5t-76 17.5q-56 0 -100 -19t-69.5 -50t-39.5 -57.5t-21 -54.5z" />
<glyph unicode="7" d="M225 1174q0 31 18.5 106t39.5 111q23 40 50.5 49.5t88.5 9.5h502q6 0 35 1t44.5 0t37 -4.5t32 -13.5t10.5 -26q0 -38 -10.5 -83.5t-22 -76t-34.5 -84.5l-445 -1081q-14 -34 -37 -58t-51 -24h-100h-8.5h-10t-10 0.5t-10.5 1.5t-8.5 2.5t-8.5 4t-6 6t-4.5 9t-1.5 11.5 q0 20 19 63l510 1022q26 47 26 74q0 12 -13 14t-52 2h-27h-241q-126 0 -177 -36q-18 -12 -38 -30t-32.5 -26t-27.5 -8q-17 0 -26 12t-10 22.5t-1 29.5z" />
<glyph unicode="8" d="M113 387q0 133 80.5 238t236.5 149q-42 17 -73.5 33t-72.5 46.5t-67 64.5t-44.5 87t-18.5 115q0 117 65 202t170 126t236 41q212 0 341.5 -96t129.5 -273q0 -75 -28.5 -137.5t-75.5 -103.5t-89 -65t-86 -40q87 -24 150.5 -65.5t99 -94t52 -109t16.5 -118.5 q0 -128 -69 -225t-183 -146t-256 -49q-147 0 -261 44.5t-183.5 141t-69.5 234.5zM406 418q0 -54 3.5 -95.5t17 -89.5t36.5 -79.5t65 -52.5t99 -21q58 0 99.5 21.5t64 52t35 80t15.5 89.5t3 95q0 56 -10.5 102t-34 86.5t-67.5 63t-105 22.5q-221 0 -221 -274zM430 1110 q0 -130 49 -209.5t146 -79.5t144.5 77.5t47.5 211.5t-45.5 199t-146.5 65q-93 0 -144 -69.5t-51 -194.5z" />
<glyph unicode="9" d="M139 973q0 121 41.5 221t110.5 163t157.5 97.5t184.5 34.5q106 0 189 -37t133.5 -95.5t83 -139t45 -160t12.5 -166.5q0 -162 -34 -302t-92.5 -240t-131.5 -177.5t-154.5 -123.5t-158 -69.5t-146.5 -23.5q-88 0 -88 55q0 36 21 49.5t85 24.5q78 13 146.5 55.5t117.5 100 t86 127t56.5 137t25.5 129.5q-123 -123 -299 -123q-169 0 -280 123t-111 340zM401 1032q0 -23 1 -46t5.5 -63t12.5 -73.5t24 -71.5t38 -64t56 -43.5t76 -17.5q56 0 99.5 19t69 50t39.5 58t20 54q0 288 -53 407t-175 119q-48 0 -86.5 -22t-61.5 -55.5t-38 -78.5t-21 -87 t-6 -85z" />
<glyph unicode=":" horiz-adv-x="552" d="M137 119q0 59 40.5 101t98.5 42q59 0 101.5 -42.5t42.5 -100.5t-42.5 -98.5t-101.5 -40.5q-58 0 -98.5 40t-40.5 99zM137 852q0 59 40.5 100t98.5 41q59 0 101.5 -41.5t42.5 -99.5t-42.5 -98.5t-101.5 -40.5q-58 0 -98.5 40.5t-40.5 98.5z" />
<glyph unicode=";" horiz-adv-x="423" d="M18 -332q0 27 21 39q2 1 19 12t21.5 14t19.5 14t20 17t17 17.5t16.5 21.5t10.5 23t8.5 28t2.5 31q0 25 -12 45.5t-29.5 35.5t-35 31t-29.5 40.5t-11 56.5q0 55 36.5 95t107.5 40q73 0 119.5 -50t46.5 -150q0 -72 -36.5 -147.5t-87 -128t-102.5 -86.5t-84 -34 q-39 0 -39 35zM76 852q0 58 42 99.5t101 41.5q57 0 98 -41.5t41 -99.5t-41 -98.5t-98 -40.5q-59 0 -101 40.5t-42 98.5z" />
<glyph unicode="&#x3c;" horiz-adv-x="1292" d="M45 762l1002 672l83 -136l-796 -538l796 -535l-83 -137z" />
<glyph unicode="=" horiz-adv-x="1454" d="M156 504v164h1114v-164h-1114zM156 850v164h1114v-164h-1114z" />
<glyph unicode="&#x3e;" horiz-adv-x="1292" d="M102 225l795 535l-795 538l82 138l1006 -676l-1008 -674z" />
<glyph unicode="?" horiz-adv-x="1015" d="M74 1167q0 134 126.5 228t352.5 94q90 0 159.5 -25.5t110.5 -68.5t61.5 -95.5t20.5 -111.5q0 -54 -10.5 -101t-25 -78.5t-40.5 -64.5t-45 -51.5t-51.5 -48t-48.5 -45.5q-71 -57 -103 -93q-59 -70 -83 -155q-11 -39 -16 -98t-16 -82t-46 -23q-84 0 -72 127q7 66 28 118.5 t60 117.5q19 29 53 73.5t57.5 78.5t49 80t38.5 102.5t13 121.5q0 211 -182 211q-76 0 -119 -44.5t-49 -90.5q-2 -14 -5 -45t-5 -46.5t-9 -39t-18 -35.5t-31.5 -21t-48.5 -9q-46 0 -76 33.5t-30 86.5zM262 104q0 60 41 102t100 42t100.5 -42t41.5 -102q0 -58 -41.5 -97.5 t-100.5 -39.5t-100 39.5t-41 97.5z" />
<glyph unicode="@" horiz-adv-x="1810" d="M66 508q0 206 78.5 385.5t207.5 301.5t296 191.5t343 69.5q183 0 334 -59t247.5 -159t149 -230t52.5 -275q0 -107 -27.5 -203.5t-74 -167.5t-105 -128.5t-122.5 -93t-125 -54t-114 -18.5q-167 0 -174 176q-46 -65 -128.5 -116.5t-172.5 -51.5q-102 0 -160.5 79.5 t-58.5 211.5q0 129 48 245.5t122 194t162 123t170 45.5q142 0 186 -82q25 26 45.5 41.5t39.5 20.5t23.5 5.5t22.5 0.5q59 0 29 -93l-127 -589q-4 -20 -4 -52q0 -28 13 -38.5t38 -10.5q58 0 117.5 38t108.5 105t79.5 170.5t30.5 223.5q0 190 -73 336.5t-212.5 229.5 t-326.5 83q-152 0 -279.5 -46.5t-216 -126.5t-150.5 -189t-91 -233.5t-29 -260.5t30 -260t90.5 -229t146.5 -182.5t204.5 -121t257.5 -43.5q185 0 336 80.5t256 231.5q24 39 43 39q43 0 43 -31q0 -9 -2 -16t-7 -15.5t-6 -11.5q-18 -38 -54.5 -83.5t-100 -98.5t-140 -95.5 t-184 -71t-223.5 -28.5q-182 0 -340 65t-274 183.5t-182 296t-66 391.5zM739 381q0 -160 88 -160q73 0 137.5 68t90.5 174l43 172q16 62 16 123q0 70 -29 94.5t-81 24.5q-72 0 -134.5 -78t-96.5 -191.5t-34 -226.5z" />
<glyph unicode="A" horiz-adv-x="1316" d="M12 68q0 25 10 38t41 12q23 0 47.5 29.5t39.5 71.5l393 1034q0 31 -11.5 52.5t-25.5 21.5q-32 0 -43.5 14t-9.5 37q1 34 34.5 53t77.5 19h191q60 0 88 -39t61 -151l307 -1045q12 -39 28 -67.5t30 -29.5q31 0 43 -13t12 -37q-5 -68 -111 -68h-272q-43 0 -73.5 16.5 t-30.5 51.5q0 51 55 50q16 0 33.5 28t9.5 57l-98 329h-418l-111 -329q-6 -21 -6 -37q0 -28 11.5 -37.5t33.5 -10.5q53 0 53 -50q0 -68 -108 -68h-182q-40 0 -69.5 16.5t-29.5 51.5zM465 659h338l-152 564z" />
<glyph unicode="B" horiz-adv-x="1345" d="M129 68q0 25 11 38t44 13q16 0 27.5 18.5t11.5 57.5v1056q0 78 -39 78q-32 0 -43.5 13.5t-11.5 37.5q0 34 32.5 52t74.5 18h217q14 0 103 2t161 2q58 0 100 -2t98 -9t96 -20t82 -37t68.5 -57t43 -83t16.5 -113q0 -67 -23 -125.5t-57 -96.5t-78 -68.5t-79.5 -46 t-68.5 -24.5v-8q92 -8 174.5 -50.5t138.5 -119.5t56 -170q0 -98 -36 -175.5t-90 -123t-124.5 -75t-133 -40t-122.5 -10.5h-542q-41 0 -74 17t-33 51zM496 186q0 -26 12 -36.5t37 -10.5h180q120 0 186 73t66 208q0 274 -324 274h-157v-508zM496 819h174q258 0 258 266 q0 46 -9.5 82.5t-24.5 60.5t-38.5 41t-44.5 25.5t-51 13.5t-50 6t-48 1q-86 0 -113 -6q-53 -5 -53 -72v-418z" />
<glyph unicode="C" horiz-adv-x="1300" d="M117 729q0 172 51.5 315.5t141.5 240.5t215 150.5t270 53.5q170 0 317 -78q137 -76 137 -215q0 -104 -30 -152.5t-74 -48.5q-28 0 -46.5 21.5t-39.5 71t-31 67.5q-70 123 -125.5 163t-154.5 40q-70 0 -130 -33.5t-108.5 -101.5t-76 -184t-27.5 -269q0 -311 98 -477 q93 -160 289 -160q180 0 319 166q37 42 52.5 54t37.5 12q66 0 66 -72q0 -41 -47 -102.5t-125 -118.5q-148 -107 -361 -107q-77 0 -149 17t-143 52.5t-129 96.5t-102.5 143t-69.5 198.5t-25 256.5z" />
<glyph unicode="D" horiz-adv-x="1511" d="M129 68q0 25 11 38t44 13q14 0 26.5 22t12.5 54v1056q0 33 -12.5 55.5t-26.5 22.5q-32 0 -43.5 13.5t-11.5 37.5q0 34 33 52t74 18h450q50 0 89 -1.5t100.5 -9t110 -20t108 -37t105 -58.5t91 -86t74.5 -117t47.5 -155t18.5 -196q0 -133 -30.5 -246t-80 -190t-117 -138 t-136.5 -97t-144 -59t-134 -31.5t-112 -8.5h-440q-41 0 -74 17t-33 51zM496 270q0 -20 1 -34.5t4.5 -27.5t6 -21.5t12 -16t14.5 -12t21 -7.5t25 -4.5t32.5 -2.5t37.5 -1h46q102 0 181.5 35t138.5 108.5t90 195.5t31 288q0 91 -11.5 167t-43 150t-81.5 125t-133.5 82 t-193.5 31q-79 0 -115.5 -7t-49.5 -23.5t-13 -53.5v-971z" />
<glyph unicode="E" horiz-adv-x="1185" d="M129 68q0 25 11 38t44 13q14 0 26.5 22t12.5 54v1056q0 78 -39 78q-32 0 -43.5 13.5t-11.5 37.5q0 34 33 52t74 18h622q29 0 74.5 2t64.5 2q50 0 73.5 -19.5t23.5 -62.5q0 -96 -9 -160q-18 -149 -79 -149q-24 0 -39 29.5t-30.5 80t-33.5 78.5q-7 11 -16 20.5t-21.5 15.5 t-22 11t-27.5 7.5t-28 4.5t-32.5 2.5t-32.5 0.5h-37h-37h-104q-22 0 -33.5 -9.5t-13.5 -20.5t-2 -32v-440l303 18q14 0 45 3.5t37 3.5q33 0 46 -14t13 -56t-27 -71t-63 -29q-23 0 -54.5 2.5t-77.5 7t-69 6.5l-153 8v-506q0 -29 19.5 -38t64.5 -9q21 0 60.5 -0.5t57.5 -0.5 t44 1t44.5 3.5t34.5 6.5q68 20 113 56t108 129q21 31 34.5 41t31.5 10q13 0 22 -3.5t13.5 -7t7 -13t3 -12.5t0.5 -15l-1 -13q0 -53 -45 -186q-30 -89 -51.5 -115t-79.5 -26q-12 0 -84.5 4t-140.5 4h-516q-41 0 -74 17t-33 51z" />
<glyph unicode="F" horiz-adv-x="1060" d="M129 68q0 25 11 38t44 13q16 0 27.5 18.5t11.5 57.5v1056q0 78 -39 78q-32 0 -43.5 13.5t-11.5 37.5q0 36 32.5 53t74.5 17h581q29 0 75.5 2t65.5 2q50 0 72.5 -19.5t22.5 -62.5q0 -83 -9 -160q-16 -149 -79 -149q-24 0 -38.5 29.5t-29.5 80t-33 78.5q-9 15 -21 26 t-30.5 17.5t-30.5 11t-40 6t-38.5 2t-47 0t-46.5 -0.5h-65q-23 0 -34 -8.5t-13 -19.5t-2 -34v-440l303 20q14 0 45 3.5t37 3.5q34 0 46.5 -13.5t12.5 -56.5q0 -42 -27 -71t-63 -29q-23 0 -54.5 2.5t-77.5 7t-69 6.5l-153 8v-497q0 -32 10.5 -54t25.5 -22q34 0 45 -13t11 -38 q0 -34 -33.5 -51t-73.5 -17h-245q-41 0 -74 17t-33 51z" />
<glyph unicode="G" horiz-adv-x="1402" d="M117 729q0 172 51.5 315.5t141.5 240.5t215 150.5t270 53.5q84 0 174.5 -20t160.5 -58q138 -77 138 -215q0 -104 -30.5 -152.5t-72.5 -48.5q-23 0 -41 16.5t-27.5 37t-24 54t-25.5 52.5q-68 120 -132.5 161.5t-166.5 41.5q-58 0 -108.5 -20.5t-94 -65.5t-74 -112.5 t-48 -166.5t-17.5 -223q0 -147 25.5 -263t66 -187t95.5 -118t109 -65t111 -18q98 0 150.5 26.5t52.5 75.5v242q0 66 -53 74q-50 7 -50 55q0 63 105 63h237q45 0 79 -15t34 -48q0 -25 -12 -37t-45 -18q-39 -8 -39 -74v-121q0 -24 12 -53t12 -47q0 -39 -45 -78 q-33 -30 -72.5 -58t-105 -63t-154.5 -56.5t-186 -21.5q-77 0 -156 22t-163 78.5t-149 140t-106.5 219t-41.5 304.5z" />
<glyph unicode="H" horiz-adv-x="1484" d="M129 68q0 25 11 38t44 13q14 0 26.5 22t12.5 54v1056q0 78 -39 78q-32 0 -43.5 13.5t-11.5 37.5q0 34 33 52t74 18h245q39 0 73 -18t34 -52q0 -24 -11.5 -37.5t-44.5 -13.5q-36 0 -36 -78v-430h532v430q0 78 -39 78q-32 0 -42.5 13.5t-10.5 37.5q0 34 33 52t73 18h246 q38 0 71.5 -18t33.5 -52q0 -24 -11.5 -37.5t-44.5 -13.5q-37 0 -37 -78v-1056q0 -31 11.5 -53.5t25.5 -22.5q34 0 45 -13t11 -38q0 -33 -33 -50.5t-72 -17.5h-246q-41 0 -73.5 17t-32.5 51q0 25 10.5 38t42.5 13q39 0 39 76v501h-532v-501q0 -76 36 -76q34 0 45 -13t11 -38 q0 -34 -33.5 -51t-73.5 -17h-245q-41 0 -74 17t-33 51z" />
<glyph unicode="I" horiz-adv-x="684" d="M129 68q0 25 11 38t44 13q14 0 26.5 22t12.5 54v1056q0 78 -39 78q-32 0 -43.5 13.5t-11.5 37.5q0 34 33 52t74 18h245q39 0 73 -18t34 -52q0 -24 -11.5 -37.5t-44.5 -13.5q-36 0 -36 -78v-1056q0 -76 36 -76q34 0 45 -13t11 -38q0 -34 -33.5 -51t-73.5 -17h-245 q-41 0 -74 17t-33 51z" />
<glyph unicode="J" horiz-adv-x="716" d="M-84 -254q0 71 30.5 105t78.5 34q17 0 50.5 -4t59.5 -4q150 0 150 318q0 80 -10.5 231.5t-10.5 212.5v612q0 78 -39 78q-32 0 -42.5 13.5t-10.5 37.5q0 34 32.5 52t71.5 18h246q41 0 74 -18t33 -52q0 -24 -11 -37.5t-43 -13.5q-38 0 -38 -78v-725q0 -159 -65 -359.5 t-150 -320.5q-62 -89 -144 -152t-153 -63q-109 0 -109 115z" />
<glyph unicode="K" horiz-adv-x="1353" d="M129 68q0 25 11 38t44 13q14 0 26.5 22t12.5 54v1056q0 78 -39 78q-32 0 -43.5 13.5t-11.5 37.5q0 34 33 52t74 18h245q39 0 73 -18t34 -52q0 -24 -11.5 -37.5t-44.5 -13.5q-36 0 -36 -78v-456q40 25 84.5 55t113 84.5t120 107.5t90 117t38.5 119q0 26 -7.5 40.5t-17 19 t-17 15t-7.5 27.5q0 34 33 52t75 18h148q47 0 75.5 -17.5t28.5 -52.5q0 -19 -11 -39.5t-24.5 -36.5t-42.5 -48t-49 -58q-149 -187 -368 -360q12 -14 26 -32t34 -45.5t33.5 -47t42.5 -61t44 -62.5q177 -258 254 -354q24 -30 58 -58.5t50.5 -47t16.5 -40.5q0 -49 -46.5 -78.5 t-121.5 -29.5q-108 0 -176 86q-26 36 -74 108.5t-109 166.5t-83 128q-136 204 -183 231l-28 -10v-497q0 -76 36 -76q34 0 45 -13t11 -38q0 -34 -33.5 -51t-73.5 -17h-245q-41 0 -74 17t-33 51z" />
<glyph unicode="L" horiz-adv-x="1175" d="M127 68q0 25 11 38t44 13q41 0 41 76v1056q0 78 -39 78q-32 0 -43.5 13.5t-11.5 37.5q0 34 33 52t74 18h245q39 0 73 -18t34 -52q0 -24 -11.5 -37.5t-44.5 -13.5q-36 0 -36 -78v-1071q0 -26 20.5 -34.5t65.5 -8.5q21 0 60.5 -0.5t57.5 -0.5t44 1t44.5 3.5t34.5 6.5 q68 20 113 56t108 129q21 31 34.5 41t31.5 10q13 0 22 -3.5t13.5 -7t7 -13t3 -12.5t0.5 -15l-1 -13q0 -53 -45 -186q-30 -89 -51.5 -115t-79.5 -26q-12 0 -84.5 4t-140.5 4h-518q-43 0 -76 17t-33 51z" />
<glyph unicode="M" horiz-adv-x="1910" d="M109 68q0 51 61 50q14 0 23.5 24t9.5 65l12 1042q0 39 -11.5 57.5t-27.5 18.5q-33 0 -44 13.5t-11 37.5q0 36 33.5 55t78.5 19h234q11 0 20.5 -1.5t16.5 -2.5t14 -5.5t11 -6.5t9 -9t7 -9t6.5 -11.5t5.5 -11.5t5 -13.5t5 -13.5l418 -1008l430 1024q30 68 115 68h178 q47 0 80 -18.5t33 -53.5q0 -51 -58 -51q-32 0 -32 -78v-1054q0 -76 36 -77q34 0 45 -12.5t11 -37.5q0 -34 -33.5 -51t-73.5 -17h-246q-41 0 -72.5 17t-31.5 51q0 25 10 38t41 12q17 0 28 21.5t11 55.5v948l-446 -1051q-42 -110 -95 -112q-15 -1 -28.5 5.5t-20.5 11.5 t-17.5 24t-13 24t-14.5 31l-467 1069l13 -938q0 -46 13 -67t30 -22q23 0 34.5 -7t13 -15.5t1.5 -27.5q0 -35 -32 -51.5t-79 -16.5h-139q-40 0 -70 16.5t-30 51.5z" />
<glyph unicode="N" horiz-adv-x="1503" d="M106 68q0 51 62 50q14 0 23.5 24t9.5 65l14 1042q0 32 -13 54t-28 22q-32 0 -43.5 13.5t-11.5 37.5q0 36 34 55t78 19h187q11 0 21.5 -2t18.5 -5t15.5 -8.5t12 -9.5t10 -10t7.5 -9.5t5.5 -8.5t3.5 -6l651 -918l-10 768q-1 47 -13.5 67.5t-27.5 20.5q-24 0 -36 8 t-13.5 16.5t-1.5 26.5q0 37 33 53.5t80 16.5h137q41 0 70.5 -17t29.5 -53q0 -51 -59 -51q-15 0 -25 -23t-10 -65l-25 -1157q0 -100 -69 -100q-12 0 -23 2.5t-22 10t-18 12.5t-17.5 18t-14.5 18t-15 20.5t-13 18.5l-754 1055l19 -932q1 -46 14 -67t29 -22q23 0 34.5 -7 t13 -15.5t1.5 -27.5q0 -35 -32 -51.5t-79 -16.5h-139q-40 0 -70.5 16.5t-30.5 51.5z" />
<glyph unicode="O" horiz-adv-x="1476" d="M123 713q0 191 47.5 340t134.5 243.5t205.5 143.5t263.5 49q104 0 195 -25.5t170 -82t135.5 -140.5t88.5 -207t32 -276q0 -367 -179 -580t-477 -213q-103 0 -195 30t-169 92t-133 150t-87.5 210t-31.5 266zM412 838q0 -371 94 -555.5t268 -184.5q113 0 189 69t109.5 183 t33.5 268q0 382 -85.5 560t-281.5 178q-112 0 -187 -70t-107.5 -183t-32.5 -265z" />
<glyph unicode="P" horiz-adv-x="1298" d="M129 68q0 25 11 38t44 13q14 0 26.5 22t12.5 54v1056q0 78 -39 78q-32 0 -43.5 13.5t-11.5 37.5q0 34 33 52t74 18h489q43 0 72 -0.5t75.5 -4.5t79 -11t74 -21t70.5 -33.5t59 -49.5t48.5 -68t30 -90t11.5 -115q0 -61 -16 -121.5t-55.5 -123t-98.5 -110.5t-153.5 -78 t-212.5 -30q-59 0 -112.5 9t-76.5 19l-24 9v-436q0 -76 36 -76q34 0 45 -13t11 -38q0 -34 -33.5 -51t-73.5 -17h-245q-41 0 -74 17t-33 51zM496 778q0 -30 52.5 -45.5t123.5 -15.5q144 0 214 83t70 238q0 59 -6.5 100t-26.5 79t-54.5 60t-92 35t-139.5 13q-79 0 -110 -12 t-31 -58v-477z" />
<glyph unicode="Q" horiz-adv-x="1454" d="M117 713q0 368 171.5 572t469.5 204q128 0 239 -48t194.5 -138.5t131 -230.5t47.5 -314q0 -235 -73.5 -407t-206.5 -277q82 -86 96 -103q47 -50 93.5 -81l64.5 -43t18 -31q0 -37 -43 -58.5t-109 -21.5q-32 0 -60.5 7t-54 24.5t-42.5 30.5t-39 41t-30 38.5t-28 40.5 l-49 70q-90 -23 -184 -23q-128 0 -237.5 48.5t-192 140.5t-129.5 235.5t-47 323.5zM406 838q0 -235 36.5 -397.5t116 -252.5t199.5 -90q32 0 55 8q-8 9 -23.5 24t-21 21.5t-13.5 16.5t-11 17.5t-3 15.5q0 49 80 49q51 0 76.5 -10.5t69.5 -42.5q49 41 81.5 165.5t32.5 255.5 q0 182 -18.5 315t-60 230t-111 145t-168.5 48q-84 0 -146.5 -41.5t-99 -115t-54 -164t-17.5 -197.5z" />
<glyph unicode="R" horiz-adv-x="1337" d="M129 68q0 25 11 38t44 13q14 0 26.5 22t12.5 54v1056q0 78 -39 78q-32 0 -43.5 13.5t-11.5 37.5q0 34 33 52t74 18h489q63 0 97.5 -1t97.5 -8t100.5 -20t85.5 -40.5t74.5 -66t45.5 -99.5t19 -138q0 -76 -22.5 -141t-59 -111t-85.5 -81.5t-99 -56t-102 -30.5l274 -389 q30 -43 64.5 -74.5t55.5 -44t35.5 -29.5t14.5 -40q0 -45 -48 -70.5t-112 -25.5q-23 0 -41.5 1t-36.5 7t-30.5 9t-29 16t-25.5 18.5t-26 27t-24.5 30.5t-28 40t-29 44.5t-34.5 53.5l-250 396l-110 12v-444q0 -76 36 -76q34 0 45 -13t11 -38q0 -34 -33.5 -51t-73.5 -17h-245 q-41 0 -74 17t-33 51zM496 813q0 -20 11 -33.5t26 -20.5t42 -11t46.5 -4.5t52.5 -0.5q132 0 207 75.5t75 219.5q0 78 -12.5 128t-47 88t-97.5 54.5t-162 16.5q-79 0 -110 -12t-31 -58v-442z" />
<glyph unicode="S" horiz-adv-x="1253" d="M102 225q0 102 31 159.5t90 57.5q17 0 30 -10t22 -29t14 -34t10.5 -39t7.5 -29q33 -98 106 -155.5t189 -57.5q85 0 147 22.5t93.5 59.5t46 75t14.5 79q0 108 -76 168q-19 14 -73 47q-63 35 -363 188q-120 63 -195 156.5t-75 212.5q0 89 30 158.5t78.5 113t117 71.5 t139 39t149.5 11q155 0 311 -53q75 -25 102 -72t27 -133q0 -81 -27.5 -128.5t-68.5 -47.5q-23 0 -41 23t-31 57.5t-36 75t-52 75t-83 57.5t-126 23q-116 0 -168.5 -57.5t-52.5 -143.5q0 -22 2 -36.5t9.5 -40t28 -50.5t52.5 -49q58 -43 171 -97t223 -110t172 -108 q67 -57 95.5 -120t28.5 -155q0 -186 -161.5 -313t-419.5 -127q-231 0 -359.5 78t-128.5 188z" />
<glyph unicode="T" horiz-adv-x="1261" d="M78 1339q0 40 6.5 65t19.5 35.5t24.5 13.5t29.5 3q17 0 64.5 -3t78.5 -3h678q31 0 78.5 3t64.5 3t28.5 -3t25 -13.5t20 -35.5t6.5 -65q0 -133 -22.5 -204.5t-67.5 -71.5q-18 0 -31 19.5t-19.5 45t-16 60.5t-19.5 55q-22 41 -61 55.5t-131 14.5h-58v-1118q0 -76 37 -76 q34 0 44.5 -13t10.5 -38q0 -34 -33 -51t-73 -17h-246q-40 0 -72 17t-32 51q0 25 10.5 38t42.5 13q16 0 27.5 21.5t11.5 54.5v1118h-58q-92 0 -131 -14.5t-61 -55.5q-10 -20 -19.5 -55t-16 -60.5t-19.5 -45t-31 -19.5q-90 0 -90 276z" />
<glyph unicode="U" horiz-adv-x="1447" d="M129 1380q0 34 33 52t74 18h245q39 0 73 -18t34 -52q0 -24 -11.5 -37.5t-44.5 -13.5q-36 0 -36 -78v-657q0 -102 6 -172.5t24 -138t51 -107t87.5 -63t132.5 -23.5q62 0 112.5 18.5t83 47t57 69.5t36.5 78.5t19.5 81t9 70t1.5 53.5v731q0 37 -12.5 63.5t-28.5 26.5 q-31 0 -41 13.5t-10 37.5q0 34 31.5 51t70.5 17h138q48 0 78 -16.5t30 -51.5q0 -24 -11 -37.5t-44 -13.5q-15 0 -27 -28.5t-12 -61.5v-790q0 -98 -30 -180.5t-80 -138.5t-116 -95.5t-138 -57.5t-146 -18q-90 0 -164.5 13.5t-147.5 50.5t-122.5 96.5t-80 158t-30.5 228.5v745 q0 78 -39 78q-32 0 -43.5 13.5t-11.5 37.5z" />
<glyph unicode="V" horiz-adv-x="1349" d="M27 1380q0 34 33.5 52t74.5 18h295q38 0 71.5 -18t33.5 -52q0 -24 -11 -37.5t-43 -13.5q-16 0 -29.5 -9.5t-13.5 -31.5q0 -25 23 -96l260 -844l289 850q22 65 22 90q0 39 -37 39q-23 0 -36 15t-13 38q0 34 34 52t75 18h155q47 0 77 -17.5t30 -52.5q0 -24 -11.5 -37.5 t-43.5 -13.5q-24 0 -40.5 -19t-37.5 -77l-418 -1131q-29 -80 -55.5 -113.5t-75.5 -33.5q-36 0 -57 29t-43 96l-388 1153q-31 96 -73 96q-47 0 -47 51z" />
<glyph unicode="W" horiz-adv-x="1898" d="M37 1380q0 34 33 52t73 18h289q41 0 74 -18t33 -52q0 -24 -11 -37.5t-43 -13.5q-15 0 -32 -10.5t-17 -32.5q0 -25 17 -112l141 -691l328 858q25 66 43.5 87.5t60.5 21.5q44 0 63 -20t41 -89l275 -858l188 764q1 4 3.5 12t4 17.5t1.5 19.5q0 33 -29 33q-30 0 -40.5 13 t-10.5 38q0 34 30 52t72 18h156q44 0 70 -17.5t26 -52.5q0 -51 -53 -51q-21 0 -40.5 -23.5t-33.5 -72.5l-311 -1129q-24 -87 -48 -116t-65 -29q-35 0 -53 29.5t-39 95.5l-299 938l-316 -918q-51 -145 -120 -145q-36 0 -54 30.5t-32 92.5l-258 1135q-11 52 -30 82t-34 30 q-32 0 -42.5 13.5t-10.5 37.5z" />
<glyph unicode="X" horiz-adv-x="1284" d="M35 68q0 22 16.5 36.5t44.5 14.5q32 0 101 100l327 479l-319 551q-25 42 -44.5 61t-43.5 19q-33 0 -44.5 13.5t-11.5 37.5q0 34 33.5 52t73.5 18h340q39 0 71.5 -18t32.5 -52q0 -24 -10.5 -37.5t-42.5 -13.5q-16 0 -29.5 -9.5t-13.5 -31.5q0 -32 10 -49l164 -317l197 327 q24 38 24 58q0 22 -26 22q-31 0 -41 13t-10 38q0 34 31.5 52t70.5 18h176q48 0 78.5 -17.5t30.5 -52.5q0 -19 -13.5 -35t-42.5 -16q-14 0 -26 -9t-22.5 -21.5t-31.5 -42.5q-8 -11 -12 -17l-311 -440l321 -549q53 -93 71 -112q19 -19 40 -19q33 0 44 -13t11 -38 q0 -34 -33.5 -51t-74.5 -17h-320q-37 0 -66.5 17t-29.5 51q0 25 10.5 38t42.5 13q25 0 25 33q0 23 -15 49l-190 372l-199 -342q-5 -9 -14 -23t-12.5 -21t-7 -16.5t-3.5 -18.5q0 -14 8 -26.5t19 -12.5q41 0 41 -45q0 -34 -29 -51t-75 -17h-176q-115 0 -115 68z" />
<glyph unicode="Y" horiz-adv-x="1224" d="M47 1380q0 34 31 52t74 18h262q46 0 75 -17.5t29 -52.5q0 -51 -47 -51q-14 0 -14 -22q0 -14 14 -58l213 -573l238 573q8 21 8 45q0 15 -8 25t-21 10q-25 0 -39 14t-14 37q0 34 33 52t73 18h156q46 0 76.5 -17.5t30.5 -52.5q0 -25 -11.5 -38t-44.5 -13q-16 0 -38.5 -29 t-41.5 -69l-323 -678v-358q0 -36 11.5 -56t27.5 -20q32 0 42.5 -13t10.5 -38q0 -35 -32 -51.5t-73 -16.5h-249q-42 0 -74.5 16.5t-32.5 51.5q0 25 10 38t41 13q16 0 29.5 20.5t13.5 55.5v344l-305 694q-22 47 -40 71.5t-38 24.5q-53 0 -53 51z" />
<glyph unicode="Z" horiz-adv-x="1157" d="M98 78q0 13 1 24t4 22t5 18t8.5 19t9.5 17l12 20t12 21l645 1094h-166q-11 -1 -53 1q-25 1 -44 1h-22q-24 -1 -58.5 -6t-61.5 -19.5t-48 -38.5q-22 -24 -37.5 -63.5t-23 -71t-21.5 -55t-35 -23.5q-75 0 -75 246q0 11 -0.5 29t-0.5 28.5t0.5 26.5t2 25t4 21t7 18.5t11 13 t15.5 9.5t20 3q33 0 66.5 -4t66.5 -4h625q26 0 38 -0.5t30 -3.5t26 -8.5t14 -16.5t6 -28q0 -38 -7.5 -67.5t-14.5 -41.5t-27 -45l-647 -1100q30 0 107 -0.5t120 -0.5t92 2t70 7q70 19 113 54.5t108 130.5q21 31 34.5 41t29.5 10q11 0 19.5 -2t13.5 -6.5t8.5 -8.5t4.5 -11.5 t1.5 -11.5t0 -13t-0.5 -11q0 -57 -47 -186q-31 -89 -47 -110q-26 -31 -82 -31q-13 0 -86 4t-142 4h-489q-21 0 -32 0.5t-29.5 4.5t-28.5 11.5t-17.5 23.5t-7.5 38z" />
<glyph unicode="[" horiz-adv-x="716" d="M172 -399v1888h442v-125h-202v-1638h202v-125h-442z" />
<glyph unicode="\" horiz-adv-x="874" d="M-23 1464l129 58l750 -1897l-129 -55z" />
<glyph unicode="]" horiz-adv-x="716" d="M72 -274h202v1638h-202v125h442v-1888h-442v125z" />
<glyph unicode="^" horiz-adv-x="1015" d="M68 920l415 577l418 -577h-145l-273 372q0 1 -68 -92l-136 -186l-68 -94h-143z" />
<glyph unicode="_" horiz-adv-x="1114" d="M-18 -281h1097v-116h-1097v116z" />
<glyph unicode="`" horiz-adv-x="604" d="M86 1397q0 44 28.5 74t88.5 30q73 0 104 -92l121 -338h-82l-229 240q-31 34 -31 86z" />
<glyph unicode="a" horiz-adv-x="980" d="M61 209q0 113 63.5 180t217.5 125q10 4 41.5 16.5t47.5 19t44 19t43.5 22t33 22t25 25.5t7.5 26v92q0 76 -20.5 107.5t-59.5 31.5q-54 0 -105 -21q-41 -23 -70 -55t-53 -86q-3 -8 -10 -25t-10 -23t-9 -17.5t-10 -15.5t-10.5 -9.5t-13.5 -7.5t-16 -2q-23 0 -38 14 t-22 40.5t-9.5 53t-2.5 62.5q0 55 16 88t54 53q40 20 204 49q134 23 199 23q240 0 240 -236v-596q0 -31 8.5 -53.5t21.5 -26.5q19 -4 27 -6.5t17.5 -10.5t9.5 -21q0 -36 -36.5 -60t-94.5 -24h-8q-21 0 -34 0.5t-37 4.5t-41 13.5t-35.5 25.5t-31.5 43.5t-20 63.5 q-17 -25 -38.5 -47.5t-57.5 -50.5t-86.5 -45t-108.5 -17q-43 0 -81 10.5t-73.5 35.5t-56.5 73.5t-21 116.5zM317 248q0 -48 29 -81.5t74 -33.5q61 0 112.5 63t51.5 130v188q-31 -15 -62 -29q-114 -53 -159.5 -103t-45.5 -134z" />
<glyph unicode="b" horiz-adv-x="1124" d="M68 1393q0 38 31.5 57.5t72.5 19.5h176q58 0 58 -120v-435q108 105 276 105q186 0 283.5 -130t97.5 -364q0 -112 -28.5 -210.5t-82 -174.5t-138.5 -120t-191 -44q-173 0 -250 111q-29 -50 -74.5 -77t-89.5 -27q-33 0 -49.5 15t-16.5 62q0 7 4.5 51.5t4.5 88.5v1073 q0 69 -33 69q-31 0 -41 13.5t-10 36.5zM406 332q0 -111 48.5 -171.5t123.5 -60.5q106 0 161.5 100.5t55.5 286.5q0 84 -8.5 149t-29.5 124t-62 91t-101 32q-52 0 -91 -24t-59 -63t-29 -78.5t-9 -80.5v-305z" />
<glyph unicode="c" horiz-adv-x="950" d="M74 498q0 111 29 201.5t76.5 149t111 98t128.5 56.5t132 17q168 0 260 -45q40 -18 55 -41.5t15 -63.5q0 -32 -10.5 -72t-35 -74t-55.5 -34q-22 0 -38.5 23t-30.5 56t-31.5 66.5t-51.5 56.5t-81 23q-97 0 -150 -105t-53 -302q0 -117 24.5 -205t80 -142.5t137.5 -54.5 q51 0 99.5 29t84.5 80q32 55 78 55q26 0 43.5 -16.5t17.5 -38.5q0 -35 -26.5 -75.5t-73.5 -77t-124 -61t-167 -24.5q-214 0 -329 141.5t-115 379.5z" />
<glyph unicode="d" horiz-adv-x="1126" d="M76 467q0 145 34.5 254.5t95 173t136 94.5t164.5 31q76 0 137 -19t92 -51v324q0 30 -9.5 49.5t-23.5 19.5q-53 0 -53 50q0 38 33.5 57.5t73.5 19.5h180q34 0 45.5 -31t11.5 -89v-1164q0 -71 23 -71q30 0 40.5 -11.5t10.5 -33.5q0 -31 -30.5 -50.5t-69.5 -19.5h-97 q-49 0 -80 31t-34 92q-34 -51 -112 -98.5t-173 -47.5q-191 0 -293 135.5t-102 354.5zM346 481q0 -194 51.5 -276t143.5 -82q50 0 89.5 19.5t62 50.5t34.5 66.5t12 70.5v397q0 25 -10 52.5t-30 56t-58 47t-88 18.5q-110 0 -158.5 -99.5t-48.5 -320.5z" />
<glyph unicode="e" horiz-adv-x="976" d="M70 487q0 120 27.5 214t71.5 153t104 97.5t121 53.5t128 15q87 0 158.5 -23.5t127.5 -71.5t87 -128.5t31 -186.5q0 -59 -23 -84.5t-88 -25.5h-481q0 -187 60.5 -290.5t174.5 -103.5q128 0 199 109q37 59 80 59q29 0 44 -17.5t15 -41.5q0 -48 -54 -105t-148 -98 q-74 -35 -201 -35q-113 0 -198.5 41.5t-136 113.5t-75 161.5t-24.5 193.5zM334 631q0 -23 20 -23h254q27 0 45.5 16t18.5 52q0 97 -40 161t-120 64q-57 0 -96 -30t-55 -78.5t-21.5 -85.5t-5.5 -76z" />
<glyph unicode="f" horiz-adv-x="720" d="M33 887q0 104 104 104h41v56q0 77 10.5 136t30 98.5t38 63t44.5 46.5q15 14 40.5 31.5t69 41t103.5 39t121 15.5q22 0 45.5 -4.5t49.5 -24.5t26 -53q0 -69 -19 -108.5t-71 -39.5q-20 0 -36 9.5t-27.5 23.5l-23 28t-29 23.5t-38.5 9.5q-43 0 -65.5 -36t-22.5 -132 q0 -57 3 -108.5t3 -77.5v-37h180q38 0 47 -7t9 -30q0 -34 -28 -65t-81 -31h-127v-680q0 -63 31 -63t41 -11.5t10 -33.5q0 -70 -98 -70h-221q-47 0 -73 18.5t-26 51.5q0 23 9 34t40 11q35 0 35 63v680h-104q-41 0 -41 29z" />
<glyph unicode="g" horiz-adv-x="1091" d="M51 -229q0 125 150 200q-64 37 -64 131q0 40 15.5 74t34 54t51 38.5t50 25.5t46.5 17q-246 100 -246 330q0 120 63.5 208t163 129.5t220.5 41.5q173 0 278 -76q8 7 39 35t42.5 37t35.5 25.5t44 22t42 5.5q36 0 56 -18.5t20 -67.5q0 -16 -4.5 -28t-15.5 -21t-22.5 -15.5 t-32.5 -12.5t-37.5 -10t-46 -11.5t-50.5 -12.5q33 -31 62.5 -91.5t29.5 -143.5q0 -103 -61.5 -189t-162 -134t-216.5 -48h-37q-168 0 -168 -78q0 -16 10.5 -28t35 -19t46.5 -11.5t63.5 -6t66.5 -2t75 -0.5h6q57 0 96 -1.5t88.5 -7.5t82.5 -16.5t67 -30t54 -47.5t33 -69 t13 -94q0 -112 -82 -197.5t-207 -127.5t-266 -42q-65 0 -122.5 6t-122 24.5t-110.5 48t-76 82.5t-30 122zM221 -211q0 -188 291 -188q46 0 92 7.5t96 24.5t81.5 52.5t31.5 85.5q0 40 -14 67t-33.5 41.5t-56 21.5t-64.5 8.5t-76 2.5h-10q-23 0 -58 1t-49.5 1t-38.5 1 t-33.5 1.5t-25.5 1.5t-23.5 2.5t-18.5 3.5t-19 4.5t-17 5.5q-22 -18 -38.5 -55.5t-16.5 -89.5zM348 637q0 -52 10.5 -98t31.5 -85t58.5 -62t86.5 -23q99 0 140.5 63.5t41.5 196.5q0 291 -189 291q-64 0 -106 -44.5t-58 -105t-16 -133.5z" />
<glyph unicode="h" horiz-adv-x="1114" d="M68 70q0 23 9 34t40 10q21 0 28 13t7 51v1096q0 69 -31 69q-32 0 -42.5 13.5t-10.5 36.5q0 38 32 57.5t70 19.5h178q58 0 58 -120v-486q57 74 133.5 114t136.5 40q160 0 225.5 -80t65.5 -254v-506q0 -63 30 -64q31 0 41.5 -11t10.5 -33q0 -70 -99 -70h-221q-46 0 -72 19 t-26 51q0 23 9 34t40 10q35 0 35 64v422v32v35t-1 33t-3 34t-6.5 30t-11 29t-16.5 23t-22.5 19t-30 10.5t-38.5 4.5q-74 0 -127 -67.5t-53 -178.5v-426q0 -63 28 -64q31 0 42 -11t11 -33q0 -70 -100 -70h-219q-49 0 -74.5 18.5t-25.5 51.5z" />
<glyph unicode="i" horiz-adv-x="559" d="M68 70q0 23 9.5 34t41.5 11q18 0 25.5 15t7.5 48v621q0 71 -29 71q-32 0 -41.5 12t-9.5 38q0 34 31 53.5t69 19.5h178q42 0 52 -43q4 -21 4 -98v-674q0 -63 28 -63q31 0 42 -11.5t11 -33.5q0 -70 -98 -70h-221q-47 0 -73.5 19t-26.5 51zM131 1292v8q-1 55 37 96 q40 44 98 44q62 0 104 -40q45 -43 44 -105q0 -57 -40 -97q-41 -42 -100 -43h-8q-52 0 -92 37q-42 40 -43 100z" />
<glyph unicode="j" horiz-adv-x="569" d="M-102 -475q0 51 22 89t68 38q22 0 46 -4t40 -4q24 0 41 8t35.5 33.5t28 84t9.5 148.5q0 81 -8 191.5t-8 181.5v500q0 79 -29 79q-34 0 -43.5 12t-9.5 38q0 34 30.5 53.5t67.5 19.5h179q39 0 49 -32.5t10 -110.5v-504q0 -236 -46 -405.5t-147 -311.5q-68 -100 -135 -153.5 t-116 -53.5q-17 0 -29.5 3t-26 13t-21 32t-7.5 55zM143 1295q0 58 40 101q41 44 98 44q62 0 103 -40.5t44 -101.5v-3q0 -56 -40 -97t-99 -43h-8q-52 0 -92 37q-46 43 -46 103z" />
<glyph unicode="k" horiz-adv-x="1048" d="M66 78q0 23 10 36t41 13q19 0 27 13.5t8 56.5v1087q0 59 -33 59q-32 0 -41.5 13t-9.5 37q0 38 31 57.5t69 19.5h180q34 0 46 -30t12 -86v-793h16q84 22 174 108t90 150q0 26 -11 42.5t-24 23t-24 19.5t-11 32q0 20 9 32.5t27.5 17.5t31 6t35.5 1h164q35 0 58.5 -15 t23.5 -42q0 -15 -11.5 -36t-40.5 -54t-42.5 -47.5t-53.5 -55.5q-120 -124 -174 -170q6 -8 48.5 -69.5t82 -115.5t82.5 -107q40 -49 84.5 -89.5t63 -59.5t18.5 -38q0 -46 -41.5 -78t-108.5 -32q-71 0 -119.5 42.5t-136.5 170.5l-182 264h-28v-264q0 -42 7.5 -56t22.5 -14 q27 0 40 -14t13 -35q0 -37 -28.5 -57.5t-73.5 -20.5h-219q-38 0 -70 21t-32 57z" />
<glyph unicode="l" horiz-adv-x="555" d="M66 1393q0 38 31.5 57.5t70.5 19.5h178q60 0 60 -120v-1153q0 -29 9.5 -49.5t22.5 -19.5q56 0 56 -50q0 -35 -31 -56.5t-74 -21.5h-219q-37 0 -69.5 22t-32.5 56q0 23 10 36t41 14q15 0 24 19t9 50v1077q0 40 -8 54.5t-25 14.5q-32 0 -42.5 13.5t-10.5 36.5z" />
<glyph unicode="m" horiz-adv-x="1626" d="M68 70q0 23 9 34t40 10q20 0 27.5 15.5t7.5 48.5v621q0 71 -33 71q-31 0 -41 12.5t-10 37.5q0 34 32 53.5t70 19.5h178q20 0 32 -11t18 -36.5t7.5 -47.5t2.5 -64q59 96 129 140t159 44t152.5 -55.5t73.5 -145.5q80 114 151 157.5t162 43.5q61 0 109.5 -25t77 -65.5 t43 -88.5t14.5 -98v-563q0 -63 28 -64q31 0 42.5 -11.5t11.5 -32.5q0 -70 -101 -70h-219q-47 0 -73.5 19t-26.5 51q0 23 9.5 34t41.5 10q33 0 33 64v440q0 4 0.5 24t0 29t-1.5 28.5t-5 30t-10 26.5t-16 25t-23 18.5t-32.5 13.5t-43.5 4q-68 0 -110 -62.5t-42 -164.5v-412 q0 -63 29 -64q31 0 42 -11t11 -33q0 -70 -100 -70h-219q-49 0 -75 18.5t-26 51.5q0 23 9.5 34t41.5 10q33 0 33 64v440q0 6 0.5 24.5t0 28.5t-1.5 28.5t-4.5 30t-9 27t-15.5 24.5t-23.5 18.5t-32.5 13.5t-43 4q-69 0 -111 -65t-42 -168v-406q0 -63 28 -64q31 0 42 -11 t11 -33q0 -70 -100 -70h-219q-49 0 -74.5 18.5t-25.5 51.5z" />
<glyph unicode="n" horiz-adv-x="1112" d="M66 918q0 35 32.5 55t69.5 20h180q27 0 41.5 -32.5t15.5 -64.5l1 -32q57 74 133.5 114t136.5 40q160 0 225.5 -80t65.5 -254v-506q0 -63 30 -63q31 0 41.5 -11.5t10.5 -33.5q0 -70 -99 -70h-221q-46 0 -72 19t-26 51q0 23 9 34t40 11q35 0 35 63v422q0 34 -0.5 51.5 t-2.5 48.5t-7 48t-14 39.5t-22.5 34t-34.5 20t-48 8.5q-74 0 -127 -67.5t-53 -178.5v-426q0 -63 28 -63q31 0 42 -11.5t11 -33.5q0 -70 -100 -70h-219q-49 0 -74.5 18.5t-25.5 51.5q0 23 9 34t40 11q21 0 28 12.5t7 50.5v619q0 32 -9 51.5t-24 19.5q-32 0 -42.5 12.5 t-10.5 37.5z" />
<glyph unicode="o" horiz-adv-x="1046" d="M57 485q0 249 127 392t336 143q102 0 183.5 -28.5t135 -77t89.5 -114.5t51.5 -137.5t15.5 -150.5q0 -122 -36.5 -223.5t-100 -169t-148 -105t-180.5 -37.5q-107 0 -190.5 30t-135.5 79t-86 117t-47.5 137t-13.5 145zM328 559q0 -100 10 -182t31.5 -150.5t61 -106.5 t93.5 -38q59 0 100 28.5t61.5 80.5t29 110t8.5 133q0 476 -199 481h-5q-47 0 -82 -19q-37 -20 -57.5 -51t-32.5 -80.5t-15.5 -96t-3.5 -109.5z" />
<glyph unicode="p" horiz-adv-x="1136" d="M68 -467q0 23 9 34t40 11q20 0 27.5 14.5t7.5 49.5v1157q0 69 -31 69q-30 0 -41.5 13t-11.5 39q0 33 33 53t69 20h158q37 0 52 -23.5t15 -92.5q95 143 287 143q180 0 288.5 -135.5t108.5 -358.5q0 -242 -122 -395.5t-312 -153.5q-168 0 -239 89v-424q0 -64 28 -64 q31 0 42 -11.5t11 -33.5q0 -70 -100 -70h-219q-49 0 -74.5 18.5t-25.5 51.5zM406 348q0 -122 55.5 -186t128.5 -64q119 0 169 97.5t50 291.5q0 387 -219 387q-82 0 -133 -62.5t-51 -186.5v-277z" />
<glyph unicode="q" horiz-adv-x="1144" d="M76 487q0 167 59.5 289.5t159.5 183t227 60.5q177 0 277 -96q49 52 77 68t70 16q30 0 36.5 -39t6.5 -151v-17v-1112q0 -31 8.5 -50.5t22.5 -19.5q51 0 51 -49q0 -34 -32 -57t-68 -23h-217q-49 0 -75 21.5t-26 58.5q0 15 2.5 24.5t14 17t32.5 7.5q33 0 33 70v387 q-105 -99 -243 -99q-191 0 -303.5 130.5t-112.5 379.5zM340 471q0 -103 17 -177.5t48 -115t67.5 -58.5t80.5 -18q182 0 182 197v391q0 99 -38.5 163.5t-123.5 64.5q-233 0 -233 -447z" />
<glyph unicode="r" horiz-adv-x="831" d="M68 78q0 15 2.5 24.5t14 17t32.5 7.5q20 0 27.5 16t7.5 54v602q0 32 -9 51.5t-24 19.5q-32 0 -41.5 12t-9.5 38q0 34 31.5 53.5t68.5 19.5h178q62 0 62 -122v-15q70 80 132.5 122t131.5 42t105 -26t36 -89q0 -20 -2 -38t-9 -47t-26.5 -46.5t-48.5 -17.5q-27 0 -51 20.5 t-50.5 41t-60.5 20.5q-22 0 -47.5 -10.5t-51.5 -32.5t-43 -65t-17 -99v-434q0 -70 28 -70q53 0 53 -49q0 -34 -32 -56t-68 -22h-219q-49 0 -74.5 20.5t-25.5 57.5z" />
<glyph unicode="s" horiz-adv-x="921" d="M61 221q0 25 5 47t22.5 41t44.5 19t47 -24.5t45 -69.5t47 -70q47 -50 91 -66t116 -16q45 0 78 15.5t49 39.5t23.5 46.5t7.5 43.5q0 27 -12 49.5t-30 38t-47 30.5t-55.5 25.5t-62.5 23.5q-13 5 -20 7q-74 27 -122.5 48.5t-93 50.5t-69 61t-39 75.5t-14.5 98.5 q0 137 102.5 211t261.5 74q373 0 373 -148q0 -182 -76 -182q-26 0 -47.5 29t-45.5 71.5t-46 61.5q-35 33 -71 50.5t-89 17.5q-59 0 -102 -31t-43 -94q0 -23 7.5 -43t25.5 -36.5t33 -28t44.5 -23.5t44.5 -17.5t49.5 -16.5t43.5 -14q175 -58 252 -134t77 -189 q0 -67 -25.5 -122t-67 -90t-95.5 -59.5t-109 -34.5t-110 -10q-113 0 -202 16t-151 64q-23 18 -33.5 51t-11 50t-0.5 63z" />
<glyph unicode="t" horiz-adv-x="700" d="M29 899q0 35 18 57q13 15 61.5 31t77.5 51q48 53 72 125q1 3 7.5 27.5t10.5 36.5t14 34.5t20 34.5t25.5 21.5t33.5 9.5q60 0 76 -15.5t16 -64.5v-268h162q26 -1 38 -9q13 -9 13 -33q0 -37 -26 -67t-60 -30h-127v-539q0 -37 0.5 -56t6 -48.5t16 -44t31 -26t50.5 -11.5 q58 0 58 -49q0 -89 -215 -89q-34 0 -60.5 5t-54 20t-45.5 40t-29.5 68t-11.5 101v629h-119q-13 0 -21 1.5t-18 6.5t-15 18t-5 33z" />
<glyph unicode="u" horiz-adv-x="1118" d="M70 918q0 35 31.5 55t68.5 20h178q58 0 58 -119v-473q0 -7 -1 -37t-0.5 -48t3 -48t11 -49t22 -38.5t37 -29.5t54.5 -10q27 0 57.5 12.5t59.5 36t48.5 65.5t19.5 93v449q0 73 -27 73q-34 0 -44.5 12t-10.5 36q0 35 32 55t72 20h179q53 0 53 -112v-684q0 -32 9 -51t24 -19 q30 0 40.5 -13t10.5 -34q0 -38 -32 -59t-71 -21h-166q-61 0 -61 141q-113 -153 -293 -153q-80 0 -136.5 24t-87 70t-43.5 103t-13 132v480q0 73 -31 73q-32 0 -41.5 12t-9.5 36z" />
<glyph unicode="v" horiz-adv-x="1024" d="M18 924q0 38 30 53.5t69 15.5h219q102 0 102 -69q0 -6 -1 -10.5t-2 -8t-4 -6.5t-4.5 -5t-6.5 -4t-6.5 -3t-7.5 -3t-7 -3q-1 0 -5 -1t-4.5 -1.5t-4 -2t-4.5 -2.5t-4 -2.5t-3.5 -3.5t-2 -5t-2 -7t-0.5 -8q0 -19 22 -86l174 -483l178 514q15 47 15 63q0 23 -15 23 q-25 0 -38 12.5t-13 32.5q0 36 26.5 53t59.5 16h156q82 0 82 -65q0 -40 -53 -49q-15 -3 -30.5 -25.5t-39.5 -79.5l-293 -686q-25 -60 -49 -85.5t-55 -25.5q-43 0 -64.5 26.5t-48.5 98.5l-240 643q-4 9 -9.5 23.5t-9 22.5t-8.5 20.5t-8 19.5t-7.5 16t-8.5 13.5t-8 9.5t-8 7 t-8 2q-30 0 -40 11.5t-10 33.5z" />
<glyph unicode="w" horiz-adv-x="1482" d="M16 924q0 36 30.5 53t68.5 16h227q102 0 102 -69q0 -6 -0.5 -11t-3 -9t-4 -7t-6 -5.5t-6 -3.5t-8.5 -3t-8 -2t-9.5 -2t-9.5 -2q-12 -3 -12 -27q0 -15 14 -92l94 -430l207 528q33 84 60 115t79 31q42 0 66.5 -31.5t40.5 -85.5l168 -557l113 475q10 38 10 53 q0 14 -6.5 21.5t-14.5 7.5q-49 0 -49 49q0 57 96 57h93q120 0 120 -57q0 -20 -12.5 -34.5t-40.5 -14.5q-16 0 -27 -21t-28 -75l-217 -693q-20 -64 -45.5 -92.5t-61.5 -28.5q-43 0 -65 26.5t-47 109.5l-170 581l-238 -596q-47 -121 -119 -121q-45 0 -68.5 36t-37.5 100 l-150 632q-21 79 -36 106.5t-39 27.5q-30 0 -40 11.5t-10 33.5z" />
<glyph unicode="x" horiz-adv-x="995" d="M20 63q0 6 2 12.5t4 11t7 10t8 8t11 8t11 7.5t13 7.5t12 7.5q67 41 127 115l180 229l-202 312q-27 41 -44 55.5t-51 23.5q-51 12 -51 54q0 36 29.5 52.5t66.5 16.5h250q20 0 32 -1t28 -4.5t24.5 -10.5t15 -20.5t5.5 -32.5q-1 -17 -14 -27t-27.5 -15.5t-16.5 -11.5 q-1 -12 -1.5 -18.5t5 -20.5t9 -21.5t11 -22.5l11.5 -23l68 -125l110 162q19 27 19 55q0 12 -13.5 21t-27 21.5t-13.5 31.5q0 63 99 63h153q88 0 88 -69q-2 -20 -15 -32t-48 -22q-53 -17 -102 -82l-191 -243l223 -340q29 -43 49 -63t46 -27q29 -7 40 -19t11 -33 q0 -63 -90 -63h-248q-111 0 -111 70q0 15 9.5 24.5t21.5 13.5t21.5 12.5t9.5 22.5q0 23 -4 35t-23 43l-98 168l-125 -176q-27 -42 -27 -70q0 -13 30 -31t30 -42q0 -36 -24.5 -53t-61.5 -17h-170q-46 0 -68.5 14.5t-22.5 48.5z" />
<glyph unicode="y" horiz-adv-x="1034" d="M10 924q0 36 29.5 52.5t69.5 16.5h241q50 0 77.5 -14t27.5 -55q0 -45 -56 -45q-18 0 -18 -37q0 -46 35 -133l188 -523l168 617q8 28 8 53q0 23 -16 23q-53 0 -53 45q0 42 26 55.5t74 13.5h121q38 0 70 -16.5t32 -52.5q0 -45 -55 -45q-23 0 -57 -88l-265 -771 q-41 -121 -69 -195t-64 -150t-68 -116.5t-73 -65.5t-88 -25q-67 0 -98 43t-31 104q0 53 23 77.5t53 24.5q14 0 47 -7t61 -7q113 0 113 178q0 54 -66 215l-260 649q-4 11 -12 30.5t-12 29t-11 24t-11 21.5t-10 15t-11 11t-11 3q-28 0 -38.5 12t-10.5 33z" />
<glyph unicode="z" horiz-adv-x="882" d="M47 61q0 67 19 99l483 721h-199q-46 0 -78 -22.5t-47 -55t-26.5 -64.5t-26 -54.5t-35.5 -22.5q-55 0 -55 204q0 135 63 135q21 0 52 -4t61 -4h496q63 0 63 -55q0 -26 -1 -37.5t-13.5 -44.5t-38.5 -72l-451 -671h146q53 0 91.5 6.5t60.5 13t43.5 26t29 29.5t27.5 39 q4 6 21 38t30.5 46.5t30.5 14.5q29 0 38 -19t9 -51q0 -49 -23 -147q-17 -70 -41.5 -89.5t-95.5 -19.5h-565q-24 0 -46 13t-22 48z" />
<glyph unicode="{" horiz-adv-x="739" d="M68 543q0 38 7.5 48.5t30.5 10.5q96 0 137 65.5t38 190.5l-7 252q-4 180 102 282.5t253 102.5q37 0 37 -37q0 -20 -6 -32t-12.5 -15t-18.5 -6q-55 -16 -73 -28q-69 -45 -67 -185l5 -338q2 -98 -61 -181t-177 -122v-16q114 -39 177 -123t61 -181l-5 -335q-2 -155 83 -196 q14 -7 57 -19q12 -4 18.5 -7.5t12.5 -15.5t6 -31q0 -37 -37 -37q-158 0 -258.5 101.5t-96.5 285.5l7 250q3 126 -37.5 191t-137.5 65q-20 0 -29 11.5t-9 48.5z" />
<glyph unicode="|" horiz-adv-x="342" d="M109 -442v2048h135v-2048h-135z" />
<glyph unicode="}" horiz-adv-x="720" d="M76 -373q0 19 6 31t12.5 15.5t18.5 7.5q55 16 73 28q68 46 66 187l-4 335q-2 97 61 181t176 123v16q-114 39 -176.5 122t-60.5 181l4 338q1 50 -8 87.5t-20 57.5t-31.5 34.5t-33.5 19.5t-35 11q-8 2 -11 3q-12 3 -18.5 6t-12.5 15t-6 32q0 37 37 37q69 0 132.5 -25 t114 -71.5t79.5 -121.5t28 -167l-6 -252q-3 -126 37.5 -191t136.5 -65q23 0 31 -10.5t8 -48.5q0 -37 -9.5 -48.5t-29.5 -11.5q-97 0 -137 -65t-37 -191l6 -250q3 -184 -97 -285.5t-257 -101.5q-37 0 -37 37z" />
<glyph unicode="~" horiz-adv-x="1218" d="M96 1069q0 15 29 57q47 62 86.5 102.5t95 70.5t113.5 30q55 0 100 -14.5t119 -48.5q14 -6 39 -17.5t37.5 -16.5t32 -12t37.5 -9.5t38 -2.5q93 0 181 82q2 2 10.5 14t17.5 16.5t25 4.5t29.5 -11.5t13.5 -31.5q0 -23 -27 -57q-80 -99 -147 -151t-150 -52q-54 0 -100 14.5 t-119 48.5q-9 4 -31 14t-31 14t-27.5 10.5t-31 9.5t-29.5 5.5t-34 2.5q-96 0 -178 -82q-3 -2 -12.5 -13.5t-18.5 -15.5t-25 -4q-15 0 -29 12t-14 31z" />
<glyph unicode="&#xa3;" horiz-adv-x="1220" d="M82 135q0 -74 49 -119t135 -45q67 0 129.5 30t96.5 91q55 -41 151 -88q101 -53 229 -53q50 0 91.5 15t77.5 47t63.5 65.5t62.5 85.5l-47 43q-39 -51 -73.5 -70.5t-75.5 -19.5q-86 0 -193 45q-82 36 -190 74q71 106 71 274q0 79 -18 176h283v92h-301q-44 183 -51 243 q-5 48 -5 105q0 111 42 184.5t128 73.5q13 0 20 -0.5t19 -3.5t17.5 -11.5t5.5 -22.5q0 -8 -19 -41q-18 -27 -18 -64q0 -50 33 -85.5t100 -35.5q61 0 94 37t33 94q0 49 -19 86.5t-52 59.5t-66.5 36.5t-73.5 20t-60.5 7t-39.5 1.5q-98 0 -176 -27t-126 -69.5t-80 -100.5 t-44.5 -115t-12.5 -118q0 -62 18 -139.5t32 -114.5h-187v-92h223q51 -164 68.5 -244.5t17.5 -162.5q-95 26 -157 26q-96 0 -150.5 -46.5t-54.5 -123.5zM195 115q0 78 90 78q15 0 25.5 -1t23 -6t18 -8t25 -14t29.5 -17q-16 -55 -54 -80.5t-76 -25.5q-16 0 -32.5 4.5 t-32.5 22.5t-16 47z" />
<glyph unicode="&#xa4;" horiz-adv-x="1212" d="M53 176l166 164q-102 130 -102 291q0 159 102 291l-166 163l90 97l164 -172q132 102 291 102q161 0 291 -102l166 170l96 -95l-172 -163q102 -136 102 -291q0 -158 -102 -291l172 -164l-96 -96l-166 170q-67 -52 -144 -77.5t-147 -25.5q-69 0 -145.5 25.5t-145.5 77.5 l-164 -170zM250 631q0 -149 101.5 -255t246.5 -106q146 0 248 105.5t102 255.5q0 148 -102 253t-248 105q-144 0 -246 -105t-102 -253z" />
<glyph unicode="&#xa7;" horiz-adv-x="1056" d="M94 635q0 114 59.5 198.5t153.5 137.5q-3 5 -15.5 23t-16.5 23.5t-14 22t-13.5 24.5t-11 23.5t-10.5 27.5t-6.5 29t-5 34t-1.5 36q0 144 99.5 239t240.5 95q146 0 237 -67.5t91 -206.5q0 -63 -32 -101t-81 -38q-47 0 -79 30t-32 86q0 18 2.5 46t2.5 55q0 42 -36.5 71 t-72.5 29q-73 0 -118.5 -38.5t-45.5 -121.5q0 -49 29 -88t100 -104l260 -226q105 -92 150 -161.5t45 -167.5q0 -204 -217 -352q3 -4 15.5 -22.5t15.5 -23.5t13.5 -21.5t13.5 -24.5t10.5 -24t10.5 -28t6.5 -29t5 -34.5t1.5 -36.5q0 -142 -99.5 -237t-238.5 -95 q-148 0 -239 68.5t-91 208.5q0 62 32.5 98.5t80.5 36.5t80.5 -30t32.5 -87q0 -16 -2.5 -43.5t-2.5 -52.5q0 -46 35 -73.5t74 -27.5q73 0 118.5 38t45.5 120q0 46 -29 84.5t-102 108.5l-297 282q-75 70 -113.5 139t-38.5 148zM272 739q0 -12 1.5 -23.5t3.5 -20.5t7.5 -20 t8.5 -17.5t12.5 -18.5t14 -17t18.5 -19l19.5 -19.5t23.5 -22.5t25 -24l270 -258q52 22 86.5 71.5t34.5 102.5q0 13 -1.5 25t-7.5 24.5t-10 21.5t-16 23t-17 20.5t-22.5 23t-24 22.5t-29 26t-30.5 27l-254 227q-46 -20 -79.5 -65t-33.5 -89z" />
<glyph unicode="&#xa8;" horiz-adv-x="602" d="M20 1298q-1 54 34.5 91.5t88.5 37.5q54 1 90.5 -36t34.5 -93q0 -53 -36 -91t-89 -38q-51 0 -87 38t-36 91zM313 1298q0 55 35 92t88 37q55 1 91.5 -36t33.5 -93q-2 -54 -36.5 -91.5t-88.5 -37.5q-50 0 -85.5 38t-37.5 91z" />
<glyph unicode="&#xa9;" horiz-adv-x="1722" d="M80 733q0 233 103 415t283.5 281t407.5 99q176 0 325.5 -61.5t251.5 -168.5t159 -253t57 -312q0 -165 -56 -310t-157 -252t-251 -169.5t-329 -62.5q-172 0 -319.5 58t-252 161t-163.5 251.5t-59 323.5zM166 733q0 -205 93.5 -367.5t255 -251.5t359.5 -89 q314 0 510.5 195.5t196.5 512.5q0 146 -52 276.5t-144 226t-224.5 151t-286.5 55.5q-148 0 -278.5 -52.5t-225 -145t-149.5 -225t-55 -286.5zM483 752q0 126 50 233t148.5 174.5t225.5 67.5q121 0 203 -47q84 -49 84 -136q0 -54 -21.5 -90t-50.5 -36q-10 0 -19 5.5 t-17.5 19.5t-13 23t-13.5 29.5t-12 26.5q-56 121 -166 121q-100 0 -158.5 -94t-58.5 -275q0 -86 18.5 -157t47 -116t64.5 -76t68 -43.5t60 -12.5q50 0 91 15t65.5 37t43.5 43.5t35.5 36.5t30.5 15q41 0 41 -43q0 -30 -32 -69t-75 -70q-56 -39 -111 -55.5t-126 -16.5 q-57 0 -112 16t-108 53t-93 92t-64.5 139.5t-24.5 189.5z" />
<glyph unicode="&#xab;" horiz-adv-x="903" d="M-6 492l483 444l53 -49l-278 -395l280 -373l-53 -53zM365 492l483 444l53 -49l-278 -395l280 -373l-53 -53z" />
<glyph unicode="&#xac;" horiz-adv-x="1478" d="M162 666v137h1210v-414h-135v277h-1075z" />
<glyph unicode="&#xad;" horiz-adv-x="862" d="M111 430v162h600v-162h-600z" />
<glyph unicode="&#xae;" horiz-adv-x="1722" d="M61 733q0 234 102.5 415.5t283 280.5t407.5 99q176 0 325.5 -61.5t252 -168.5t160 -253t57.5 -312q0 -164 -56.5 -309.5t-158 -252.5t-251.5 -169.5t-329 -62.5q-230 0 -410.5 99t-281.5 280.5t-101 414.5zM145 733q0 -154 55 -286.5t150 -224.5t226 -144.5t278 -52.5 q316 0 512.5 195.5t196.5 512.5q0 146 -52.5 276.5t-144 226t-225 151t-287.5 55.5q-147 0 -278 -52.5t-226 -144.5t-150 -225t-55 -287zM510 340q0 10 1.5 15.5t9 10.5t22.5 5q10 0 18 14t8 35v649q0 22 -8 35.5t-18 13.5q-15 0 -22.5 4.5t-9 10t-1.5 16.5q0 23 21 38 t51 15h303q47 0 85 -4t85.5 -20t80 -42.5t54.5 -76t22 -117.5q0 -90 -71.5 -160.5t-163.5 -81.5l176 -241q26 -37 52 -58.5t39 -32t18 -28.5q6 -21 -28 -41t-73 -20q-51 0 -95.5 31t-102.5 124l-146 240q-58 16 -76 26v-280q0 -19 9.5 -34t17.5 -15q33 0 33 -31 q0 -23 -19.5 -37t-48.5 -14h-155q-25 0 -46.5 14.5t-21.5 36.5zM741 811q0 -27 34 -42t73 -15q184 0 184 182q0 48 -5.5 76.5t-24 57t-61 41.5t-110.5 13q-19 0 -31.5 -1t-27.5 -5t-23 -14t-8 -25v-268z" />
<glyph unicode="&#xb0;" horiz-adv-x="630" d="M86 1106q0 103 72.5 175.5t175.5 72.5t176.5 -72.5t73.5 -175.5t-73.5 -176.5t-176.5 -73.5t-175.5 73.5t-72.5 176.5zM197 1106q0 -61 38.5 -99t98.5 -38q62 0 99.5 37.5t37.5 99.5q0 61 -38 100t-99 39q-60 0 -98.5 -39.5t-38.5 -99.5z" />
<glyph unicode="&#xb1;" horiz-adv-x="1105" d="M111 225v137h895v-137h-895zM111 700v140h378v254h140v-254h377v-140h-377v-254h-140v254h-378z" />
<glyph unicode="&#xb4;" horiz-adv-x="880" d="M379 1024l96 233q22 52 46.5 78.5t66.5 26.5q41 0 68.5 -23t27.5 -65q0 -45 -33 -78l-200 -172h-72z" />
<glyph unicode="&#xb5;" horiz-adv-x="1349" d="M-72 -334q0 39 29 134t76 259t78 328l102 528q15 78 154 78q59 0 84 -9.5t24.5 -26.5t-4.5 -42l-94 -499q-10 -51 -10 -135q0 -62 35.5 -103t101.5 -41q90 0 141 60t74 174l108 544q15 78 150 78q67 0 92.5 -20t17.5 -58l-108 -559q-14 -74 -14 -125q0 -40 17 -67t56 -27 q22 0 42 8.5t34 20.5t27 34t21 38t17 43.5t12 41t9.5 40.5t7.5 32q12 37 47 37q24 0 36 -10.5t14 -21t2 -27.5q0 -21 -9 -58t-26.5 -85t-46 -96.5t-63.5 -89.5t-83.5 -67t-101.5 -26q-78 0 -136 68t-63 143q-46 -94 -122 -152.5t-164 -58.5q-218 0 -267 239 q-14 -69 -26.5 -150t-20.5 -138.5t-18 -118t-20 -100t-23.5 -72.5t-33 -48.5t-44.5 -15.5q-52 0 -81.5 30t-29.5 89z" />
<glyph unicode="&#xb6;" horiz-adv-x="1083" d="M84 1153q0 132 80 208.5t215 76.5h620v-107h-200v-1704h-135v1704h-166v-1704h-136v1241q-30 0 -61.5 5.5t-72 24t-71 48.5t-52 83.5t-21.5 123.5z" />
<glyph unicode="&#xbb;" horiz-adv-x="923" d="M-6 121l287 383l-285 403l53 51l496 -454l-498 -436zM373 121l286 383l-284 403l53 51l496 -454l-498 -436z" />
<glyph unicode="&#xf7;" horiz-adv-x="1124" d="M23 639v84h1079v-84h-1079zM473 367q0 37 25.5 62.5t62.5 25.5t62.5 -25.5t25.5 -62.5q0 -36 -26 -62t-62 -26q-35 0 -61.5 26.5t-26.5 61.5zM473 987q0 37 25.5 62.5t62.5 25.5t62.5 -25.5t25.5 -62.5q0 -35 -25.5 -60.5t-62.5 -25.5t-62.5 25.5t-25.5 60.5z" />
<glyph unicode="&#x2000;" horiz-adv-x="810" />
<glyph unicode="&#x2001;" horiz-adv-x="1620" />
<glyph unicode="&#x2002;" horiz-adv-x="810" />
<glyph unicode="&#x2003;" horiz-adv-x="1620" />
<glyph unicode="&#x2004;" horiz-adv-x="540" />
<glyph unicode="&#x2005;" horiz-adv-x="405" />
<glyph unicode="&#x2006;" horiz-adv-x="270" />
<glyph unicode="&#x2007;" horiz-adv-x="270" />
<glyph unicode="&#x2008;" horiz-adv-x="202" />
<glyph unicode="&#x2009;" horiz-adv-x="324" />
<glyph unicode="&#x200a;" horiz-adv-x="90" />
<glyph unicode="&#x2010;" horiz-adv-x="862" d="M111 430v162h600v-162h-600z" />
<glyph unicode="&#x2011;" horiz-adv-x="862" d="M111 430v162h600v-162h-600z" />
<glyph unicode="&#x2012;" horiz-adv-x="862" d="M111 430v162h600v-162h-600z" />
<glyph unicode="&#x2013;" horiz-adv-x="1331" d="M117 430v162h1138v-162h-1138z" />
<glyph unicode="&#x2014;" horiz-adv-x="1828" d="M137 430v162h1571v-162h-1571z" />
<glyph unicode="&#x2018;" horiz-adv-x="393" d="M41 1178q0 72 36.5 147.5t87 128.5t102 87t83.5 34q39 0 39 -37q0 -25 -20 -39q-4 -2 -24.5 -15.5t-27.5 -19t-24 -19t-24.5 -24t-17.5 -26.5t-14 -34t-4 -38q0 -25 12 -45.5t29.5 -35.5t35 -31t29.5 -40.5t11 -56.5q0 -57 -36 -97t-107 -40q-72 0 -119 51t-47 150z" />
<glyph unicode="&#x2019;" horiz-adv-x="401" d="M16 1006q0 26 21 38q3 2 21.5 14.5t24 16.5t21.5 16.5t22.5 20t17.5 21.5t15.5 26.5t8.5 29t4 34.5q0 25 -12 45.5t-29.5 35.5t-35 31t-29.5 40.5t-11 56.5q0 56 36.5 96.5t107.5 40.5q72 0 119 -51t47 -150q0 -72 -36.5 -147.5t-87 -128.5t-102.5 -87t-84 -34 q-39 0 -39 35z" />
<glyph unicode="&#x201c;" horiz-adv-x="786" d="M57 1149q0 72 36.5 147.5t87 128t102.5 86t84 33.5q39 0 39 -35q0 -21 -21 -39q-2 -1 -19 -12t-21.5 -14t-19.5 -14t-20 -17t-17 -17.5t-16.5 -21.5t-10.5 -23t-8.5 -28t-2.5 -31q0 -25 12 -44.5t29.5 -34.5t35 -31t29.5 -40.5t11 -56.5q0 -57 -36.5 -97t-107.5 -40 q-73 0 -119.5 50.5t-46.5 150.5zM408 1149q0 72 36.5 147.5t87.5 128t102 86t83 33.5q41 0 41 -35q0 -23 -23 -39q-2 -1 -24 -15.5t-27.5 -19t-23.5 -19t-25 -25t-17 -26.5t-14 -34t-4 -39q0 -25 12 -44.5t29.5 -34.5t35 -31t29.5 -40.5t11 -56.5q0 -57 -36.5 -97 t-107.5 -40q-72 0 -118.5 50.5t-46.5 150.5z" />
<glyph unicode="&#x201d;" horiz-adv-x="786" d="M35 981q0 26 22 39l21 14t23.5 16t21 16t22 19.5t17.5 21.5t15.5 26.5t8.5 29.5t4 35q0 25 -12 45t-29 35t-34 31t-29 41t-12 57q2 56 37.5 95.5t107.5 39.5q71 0 118.5 -50.5t47.5 -150.5q0 -58 -24 -119t-61.5 -109t-80 -86.5t-81.5 -59.5t-64 -21q-39 0 -39 35z M387 981q0 27 21 39q2 1 19 12t21.5 14t19.5 14t20 17t17 17.5t16.5 21.5t10.5 23t8.5 28t2.5 31q0 25 -12 45t-29.5 35t-35 31t-29.5 41t-11 57q0 55 36 95t107 40q73 0 119.5 -50.5t46.5 -150.5q0 -72 -36.5 -147.5t-87 -128t-102 -86t-83.5 -33.5q-39 0 -39 35z" />
<glyph unicode="&#x201e;" horiz-adv-x="849" d="M84 -332q0 26 20 39q3 2 19 12t21.5 14t20 14t20.5 16.5t17 18t16 21.5t11 23t8.5 28t2.5 31q0 25 -12 45.5t-29.5 35.5t-35 31t-29.5 40.5t-11 56.5q0 55 36 95t107 40q73 0 119.5 -50t46.5 -150q0 -72 -36.5 -147.5t-87 -128t-102 -86.5t-83.5 -34q-39 0 -39 35z M434 -332q0 26 23 39q2 1 24 15.5t27.5 19t23.5 19t25 25t17 26.5t14 34t4 39q0 25 -12.5 45.5t-30 35.5t-34.5 31t-29.5 40.5t-12.5 56.5q2 56 37.5 95.5t107.5 39.5q73 0 119.5 -50t46.5 -150q0 -72 -36.5 -147.5t-87.5 -128t-103 -86.5t-84 -34q-39 0 -39 35z" />
<glyph unicode="&#x2022;" horiz-adv-x="591" d="M55 543q-2 104 70 180t174 76t174 -76t72 -180q-2 -104 -73 -178t-173 -74t-173 74t-71 178z" />
<glyph unicode="&#x2026;" horiz-adv-x="1626" d="M143 98q0 56 38 94.5t91 38.5q57 0 96.5 -37t39.5 -92q0 -57 -37 -95t-92 -38t-95.5 36.5t-40.5 92.5zM684 98q0 55 37 94t92 39q56 0 95.5 -37t39.5 -92q0 -57 -37 -95t-92 -38q-63 0 -99 35t-36 94zM1225 98q0 56 37 94.5t92 38.5t95 -37t40 -92t-37.5 -93t-91.5 -40 q-55 -2 -95 35.5t-40 93.5z" />
<glyph unicode="&#x202f;" horiz-adv-x="324" />
<glyph unicode="&#x205f;" horiz-adv-x="405" />
<glyph unicode="&#x20ac;" d="M27 553q-1 51 24 86q27 44 88 47l2 107h-114q-1 53 24 88q17 27 42.5 36t64.5 9q53 263 208 413t377 150q180 0 301 -64q65 -36 93 -82t28 -120q0 -102 -29 -151.5t-71 -49.5q-17 0 -31.5 9.5t-25 28t-18.5 36.5t-19 44t-19 42q-23 43 -39 67.5t-43 53.5t-62 42t-81 13 q-113 0 -193.5 -106.5t-105.5 -325.5h487q-1 -47 -24 -84q-11 -18 -23 -29t-29.5 -15t-27 -4.5t-35.5 -0.5h-356q0 -89 2 -107h389q-2 -45 -25 -84q-21 -33 -45.5 -41t-68.5 -8h-238q8 -101 31.5 -179t53 -122.5t68.5 -72.5t72 -37t68 -9q53 0 97 15.5t75.5 45.5t47 49 t34.5 50q45 72 82 72q38 0 54 -21.5t16 -50.5q0 -31 -18 -72.5t-56.5 -86.5t-90.5 -82.5t-129.5 -62t-164.5 -24.5q-80 0 -148.5 17.5t-133 60t-113 108.5t-82.5 168t-47 234h-123z" />
<glyph unicode="&#x2122;" horiz-adv-x="1871" d="M59 1393q0 26 5 42.5t14 23.5t17 9t20 2t39.5 -3t44.5 -3h399q18 0 45 3t37 3q13 0 21.5 -2t17.5 -9t13.5 -23.5t4.5 -42.5q0 -82 -16.5 -127t-44.5 -45q-15 0 -24.5 17t-19.5 48.5t-16 44.5q-14 22 -34.5 29.5t-69.5 7.5h-25v-647q0 -35 15 -35q24 0 32.5 -10t8.5 -31 q0 -24 -22 -36.5t-50 -12.5h-145q-26 0 -48 12.5t-22 36.5q0 22 7 31.5t34 9.5q10 0 10 35v647h-22q-50 0 -71.5 -7.5t-33.5 -29.5q-6 -13 -15.5 -44.5t-19 -48.5t-24.5 -17q-28 0 -45 45t-17 127zM782 645q0 41 45 41q2 0 3.5 1t2.5 3l2 4t1 6.5t0.5 7.5t1 9t0.5 10l6 610 q3 35 -13 35q-18 0 -27.5 6t-11 13.5t-1.5 21.5q0 51 73 51h137q8 0 14.5 -0.5t12 -2.5t9.5 -3.5t8 -5.5l6 -6t5 -8t4 -7.5t4.5 -9.5t4.5 -10l240 -567l245 577q6 11 10 17.5t22 16t44 9.5h101q73 0 73 -51q0 -39 -43 -39q-10 0 -10 -37v-616q0 -35 14 -35q24 0 32.5 -10 t8.5 -31q0 -24 -21.5 -36.5t-49.5 -12.5h-146q-28 0 -49.5 12.5t-21.5 36.5q0 22 8 31.5t35 9.5q12 0 12 35v506l-242 -572q-31 -69 -67 -69q-24 -1 -37.5 14.5t-26.5 46.5l-254 580l6 -500q0 -41 15 -41q19 0 27.5 -6t10 -12.5t1.5 -22.5q0 -25 -22 -37t-54 -12h-80 q-28 0 -48 12.5t-20 36.5z" />
<glyph unicode="&#x25fc;" horiz-adv-x="993" d="M0 0v993h993v-993h-993z" />
</font>
</defs>
</svg>
